SplineFontDB: 3.0
FontName: music
FullName: music
FamilyName: music
Weight: Medium
Copyright: Created by Kristof Bastiaensen,,, with FontForge 1.0 (http://fontforge.sf.net)
UComments: "2005-9-19: Created." 
Version: 001.000
ItalicAngle: 0
UnderlinePosition: -100
UnderlineWidth: 50
Ascent: 800
Descent: 200
LayerCount: 2
Layer: 0 0 "Back"  1
Layer: 1 0 "Fore"  0
XUID: [1021 701 1851557237 14778185]
FSType: 0
OS2Version: 0
OS2_WeightWidthSlopeOnly: 0
OS2_UseTypoMetrics: 0
CreationTime: 1129557299
ModificationTime: 1373796064
OS2TypoAscent: 0
OS2TypoAOffset: 1
OS2TypoDescent: 0
OS2TypoDOffset: 1
OS2TypoLinegap: 90
OS2WinAscent: 0
OS2WinAOffset: 1
OS2WinDescent: 0
OS2WinDOffset: 1
HheadAscent: 0
HheadAOffset: 1
HheadDescent: 0
HheadDOffset: 1
OS2Vendor: 'PfEd'
DEI: 91125
Encoding: Custom
UnicodeInterp: none
NameList: Adobe Glyph List
DisplaySize: -96
AntiAlias: 1
FitToEm: 1
WinInfo: 32 8 3
BeginChars: 256 47

StartChar: note4
Encoding: 0 -1 0
Width: 247
Flags: W
HStem: -113 226<82.6152 165.656>
VStem: 0 247<-31.942 32.9162>
LayerCount: 2
Fore
SplineSet
247 41 m 0
 246.999023438 25 245.333007812 12 242 2 c 0
 234.666992188 -22.6669921875 216.833007812 -48 188.5 -74 c 0
 160.166992188 -100 123.333007812 -113 78 -113 c 0
 29.700376165 -113 0 -87.0137912614 0 -41 c 0
 0 12.3661872671 22.4799862391 38.2302117658 51 67.5 c 0
 75.6062217707 92.7531049427 119.321440996 113 169 113 c 4
 217.299623835 113 247 87.0132293304 247 41 c 0
EndSplineSet
EndChar

StartChar: note2
Encoding: 1 -1 1
Width: 280
VWidth: 900
Flags: W
HStem: -114 18<37.576 85.1146> 95.5 18.5<165.74 215.118>
VStem: 0 21.25<-80.988 -32.5408> 232.25 18.75<35.4578 78.367>
LayerCount: 2
Fore
SplineSet
62.25 -96 m 0
 79.5830078125 -96 115.166992188 -70.6669921875 159.5 -32 c 0
 203.833007812 6.6669921875 232.25 39.5 232.25 55.5 c 0
 232.249023438 64.8330078125 228.083007812 73.8330078125 219.75 82.5 c 0
 211.416992188 91.1669921875 201.916992188 95.5 191.25 95.5 c 0
 173.916992188 95.5 136.833007812 70.6669921875 92.5 32 c 0
 48.1669921875 -6.6669921875 21.25 -40 21.25 -56 c 0
 21.25 -65.3330078125 25.25 -74.3330078125 33.25 -83 c 0
 41.25 -91.6669921875 50.9169921875 -96 62.25 -96 c 0
79 -114 m 0
 30.7607421875 -114 0 -87.990234375 0 -42 c 0
 -0 61 63.3974609375 114 171 114 c 0
 224.333007812 114 251 89.6669921875 251 41 c 0
 251 -61.892578125 186.790039062 -114 79 -114 c 0
EndSplineSet
EndChar

StartChar: note1
Encoding: 2 -1 2
Width: 340
VWidth: 900
Flags: W
HStem: -113 20.1338<158.626 221.648> 92.8672 20.1328<107.868 172.063>
VStem: 0 87.7734<-32.7316 64.008> 242.227 96.7734<-64.0079 32.7317>
LayerCount: 2
Fore
SplineSet
339 0 m 0
 339 -36.6669921875 324.166992188 -64.6669921875 294.5 -84 c 0
 264.833007812 -103.333007812 225 -113 175 -113 c 0
 119 -113 75.8330078125 -101 45.5 -77 c 0
 15.1669921875 -53 0 -27.3330078125 0 0 c 0
 -0 36.6669921875 14.8330078125 64.6669921875 44.5 84 c 0
 74.1669921875 103.333007812 114 113 164 113 c 0
 220 113 263.166992188 101 293.5 77 c 0
 323.833007812 53 339 27.3330078125 339 0 c 0
134.696289062 92.8671875 m 0
 109.024414062 92.8671875 87.7734375 68.0224609375 87.7734375 43.01171875 c 0
 87.7734375 -16.8408203125 134.250976562 -92.8662109375 195.303710938 -92.8662109375 c 0
 220.975585938 -92.8662109375 242.2265625 -68.0224609375 242.2265625 -43.01171875 c 0
 242.2265625 16.8408203125 195.748046875 92.8671875 134.696289062 92.8671875 c 0
EndSplineSet
EndChar

StartChar: flat
Encoding: 3 -1 3
Width: 182
Flags: HMW
HStem: 198.5 24.5<63.1535 117.333>
LayerCount: 2
Fore
SplineSet
33 60.5 m 9
 30.75 -117.25 l 1
 59.75 -89.75 105 -5.064453125 105 48.5 c 0
 105 69.00390625 98.611328125 98.5 79 98.5 c 0
 69.7353515625 98.5 61.7333984375 95.419921875 54.9931640625 89.2607421875 c 0
 48.25390625 83.1015625 40.921875 73.5146484375 33 60.5 c 9
13.5 -141 m 10
 3.5 356 l 2
 3.5 364 8.6669921875 368 22 368 c 0
 35.3330078125 368 40.197265625 363.997070312 40 356 c 2
 33.318359375 85.0009765625 l 1
 46.6513671875 98.333984375 60 109.666992188 70 115 c 0
 80 120.333007812 92.3330078125 123 107 123 c 0
 148.509765625 123 182 84.693359375 182 43 c 0
 182 7.2802734375 162.38671875 -19.57421875 142 -42 c 0
 110.854492188 -76.2607421875 69.5830078125 -110 37 -140 c 0
 30.7578125 -145.747070312 27 -149 25 -149 c 2
 20.5 -149 l 2
 15.8330078125 -149 13.5 -146.333007812 13.5 -141 c 10
EndSplineSet
EndChar

StartChar: sharp
Encoding: 4 -1 4
Width: 234
VWidth: 900
Flags: W
VStem: 12 59.7002<-178.667 -168 -106 -100.667 21.333 32 94 99.333> 48.2998 23.4004<-302.996 260.996> 146.3 23.4004<-264.996 298.996>
LayerCount: 2
Fore
SplineSet
169.700195312 284 m 2x20
 169.700195312 -250 l 2
 169.700195312 -260 165.799804688 -265 158 -265 c 0
 150.200195312 -265 146.299804688 -260 146.299804688 -250 c 2
 146.299804688 284 l 2
 146.299804688 294 150.200195312 299 158 299 c 0
 165.799804688 299 169.700195312 294 169.700195312 284 c 2x20
195 -110 m 2
 28 -177 l 6
 17.1884765625 -181.3125 12 -178.666992188 12 -168 c 6
 12 -106 l 6xa0
 12 -100.666992188 16.58984375 -95.8076171875 26 -92 c 6
 193 -24 l 1
 204.333007812 -20.6669921875 210 -23.6669921875 210 -33 c 2
 210 -95 l 2
 210 -101.666992188 204.78125 -106.075195312 195 -110 c 2
193 176 m 1
 204.333007812 179.333007812 210 176.333007812 210 167 c 2
 210 105 l 2
 210 98.3330078125 204.78125 93.9248046875 195 90 c 2
 28 23 l 6
 17.1884765625 18.6875 12 21.3330078125 12 32 c 6
 12 94 l 6
 12 99.3330078125 16.58984375 104.192382812 26 108 c 6
 193 176 l 1
71.7001953125 246 m 2x60
 71.7001953125 -288 l 2
 71.7001953125 -298 67.7998046875 -303 60 -303 c 0
 52.2001953125 -303 48.2998046875 -298 48.2998046875 -288 c 2
 48.2998046875 246 l 2
 48.2998046875 256 52.2001953125 261 60 261 c 0
 67.7998046875 261 71.7001953125 256 71.7001953125 246 c 2x60
EndSplineSet
EndChar

StartChar: natural
Encoding: 5 -1 5
Width: 154
VWidth: 900
Flags: W
VStem: 6.92188 23.0781<-72.6211 41.3789 127.379 315.229> 109 25.25<-301.995 -127.379 -41.3789 72.6211>
LayerCount: 2
Back
Fore
SplineSet
23.9248046875 -160.840820312 m 2
 18.83203125 -162.8125 14.689453125 -162.848632812 11.5830078125 -161.166015625 c 0
 8.4765625 -159.482421875 6.923828125 -156.372070312 6.923828125 -151.834960938 c 2
 6.921875 302.158203125 l 2
 6.921875 312.158203125 9.4169921875 315.25 19.4169921875 315.25 c 0
 29.4169921875 315.25 30 310 30 300 c 2
 30 127.37890625 l 1
 120.083007812 161.5 l 2
 131.416992188 165.103515625 134.080078125 161.1015625 134.083984375 151.494140625 c 2
 134.25 -286 l 2
 134.25 -296 131.916015625 -302 121.916015625 -302 c 0
 111.916015625 -302 109 -295 109 -285 c 2
 109 -127.37890625 l 1
 23.9248046875 -160.840820312 l 2
30 -72.62109375 m 1
 109 -41.37890625 l 1
 109 72.62109375 l 1
 30 41.37890625 l 1
 30 -72.62109375 l 1
EndSplineSet
EndChar

StartChar: doubleflat
Encoding: 6 -1 6
Width: 332
Flags: W
HStem: 98.5 24.5<63.3141 117.02 213.314 275.865>
VStem: 3.5 36.5<85.001 367.997> 13.5 19.5<-117.25 206.9> 105 78<-17.2085 97.9783> 163.5 17.25<-117.25 -18.507> 255 77<-18.3757 96.3297>
LayerCount: 2
Fore
SplineSet
13.5 -141 m 2xac
 3.5 356 l 2
 3.5 364 8.6669921875 368 22 368 c 0
 35.3330078125 368 40.197265625 363.997070312 40 356 c 2xc4
 33.318359375 85.0009765625 l 1
 46.6513671875 98.333984375 60 109.666992188 70 115 c 0
 80 120.333007812 92.3330078125 123 107 123 c 0
 127.040758035 123 145.21222595 114.071021156 158.648031935 100.14281284 c 1
 153.5 356 l 2
 153.5 364 158.666992188 368 172 368 c 0
 185.333007812 368 190.197265625 363.997070312 190 356 c 2
 183.318359375 85.0009765625 l 1
 196.651367188 98.333984375 210 109.666992188 220 115 c 0
 230 120.333007812 242.333007812 123 257 123 c 0
 294.729858398 123 332 84.693359375 332 43 c 0
 332 7.2802734375 312.38671875 -19.57421875 292 -42 c 0
 260.854492188 -76.2607421875 219.583007812 -110 187 -140 c 0
 180.7578125 -145.747070312 177 -149 175 -149 c 2
 170.5 -149 l 2
 165.833007812 -149 163.5 -146.333007812 163.5 -141 c 2
 161.035351853 -18.5069871005 l 1
 155.207284709 -26.9108760628 148.644724635 -34.6906755838 142 -42 c 0
 110.854492188 -76.2607421875 69.5830078125 -110 37 -140 c 0
 30.7578125 -145.747070312 27 -149 25 -149 c 2
 20.5 -149 l 2
 15.8330078125 -149 13.5 -146.333007812 13.5 -141 c 2xac
33 60.5 m 1xb4
 30.75 -117.25 l 1
 59.75 -89.75 105 -5.064453125 105 48.5 c 0
 105 69.00390625 98.611328125 98.5 79 98.5 c 0
 69.7353515625 98.5 61.7333984375 95.419921875 54.9931640625 89.2607421875 c 0
 48.25390625 83.1015625 40.921875 73.5146484375 33 60.5 c 1xb4
183 60.5 m 1
 180.75 -117.25 l 1x8c
 209.75 -89.75 255 -5.064453125 255 48.5 c 0
 255 69.00390625 248.611328125 98.5 229 98.5 c 0
 219.735351562 98.5 211.733398438 95.419921875 204.993164062 89.2607421875 c 0
 198.25390625 83.1015625 190.921875 73.5146484375 183 60.5 c 1
EndSplineSet
EndChar

StartChar: doublesharp
Encoding: 7 -1 7
Width: 217
VWidth: 899
Flags: W
HStem: -108.262 85.8945<8.81029 77.5405 139.52 208.249> -18.5244 37.585<92.0624 124.998> 22.9023 85.8955<8.81029 77.5405 139.52 208.249>
VStem: 0 85.8955<-99.4514 -30.7222 31.2574 99.9885> 89.7373 37.5859<-16.1996 16.7362> 131.165 85.8945<-99.4514 -30.7222 31.2574 99.9885>
LayerCount: 2
Back
Fore
SplineSet
108.530273438 19.060546875 m 0
 120.8671875 19.060546875 130.588867188 42.029296875 131.165039062 81.3330078125 c 0
 131.341796875 93.1767578125 133.797851562 99.40625 138.53515625 100.021484375 c 2
 201.571289062 108.211914062 l 2
 204.625976562 108.606445312 206.369140625 108.801757812 206.797851562 108.797851562 c 0
 213.638671875 108.796875 217.059570312 105.375976562 217.059570312 98.53515625 c 0
 217.059570312 98.044921875 216.865234375 96.302734375 216.473632812 93.3095703125 c 2
 208.282226562 30.2724609375 l 2
 207.666992188 25.53515625 201.438476562 23.078125 189.595703125 22.90234375 c 0
 150.291992188 22.326171875 127.323242188 12.6044921875 127.323242188 0.267578125 c 0
 127.323242188 -12.0673828125 150.291992188 -21.7890625 189.595703125 -22.3671875 c 0
 201.438476562 -22.54296875 207.666992188 -25 208.282226562 -29.7373046875 c 2
 216.473632812 -92.7734375 l 2
 216.87109375 -95.7763671875 217.067382812 -97.5185546875 217.059570312 -98 c 0
 217.05859375 -104.840820312 213.638671875 -108.26171875 206.797851562 -108.26171875 c 0
 206.293945312 -108.26171875 204.551757812 -108.06640625 201.571289062 -107.67578125 c 2
 138.53515625 -99.484375 l 2
 133.797851562 -98.869140625 131.340820312 -92.640625 131.165039062 -80.7978515625 c 0
 130.587890625 -41.4931640625 120.866210938 -18.5244140625 108.530273438 -18.5244140625 c 0
 96.1943359375 -18.5244140625 86.47265625 -41.4931640625 85.8955078125 -80.7978515625 c 0
 85.7197265625 -92.640625 83.2626953125 -98.869140625 78.525390625 -99.484375 c 2
 15.4892578125 -107.67578125 l 2
 12.5107421875 -108.06640625 10.7685546875 -108.26171875 10.2626953125 -108.26171875 c 0
 3.4208984375 -108.26171875 0 -104.840820312 0 -98 c 0
 0 -97.541015625 0.1953125 -95.798828125 0.5859375 -92.7734375 c 2
 8.77734375 -29.7373046875 l 2
 9.392578125 -24.9990234375 15.6220703125 -22.54296875 27.46484375 -22.3671875 c 0
 66.7685546875 -21.7890625 89.7373046875 -12.0673828125 89.7373046875 0.267578125 c 0
 89.7373046875 12.6044921875 66.7685546875 22.326171875 27.46484375 22.90234375 c 0
 15.6220703125 23.078125 9.392578125 25.53515625 8.77734375 30.2724609375 c 2
 0.5859375 93.3095703125 l 2
 0.1953125 96.326171875 0 98.068359375 0 98.53515625 c 0
 0 105.376953125 3.4208984375 108.797851562 10.2626953125 108.797851562 c 0
 10.6943359375 108.797851562 12.4365234375 108.602539062 15.4892578125 108.211914062 c 2
 78.525390625 100.021484375 l 2
 83.263671875 99.40625 85.7197265625 93.17578125 85.8955078125 81.3330078125 c 0
 86.47265625 42.029296875 96.1943359375 19.060546875 108.530273438 19.060546875 c 0
EndSplineSet
EndChar

StartChar: rest8
Encoding: 9 -1 8
Width: 224
Flags: W
HStem: 42.6904 26.582<101.01 139.645>
VStem: 0 116.479<70.4897 143.003> 35.0479 29.4316<-210.118 -197.569>
LayerCount: 2
Fore
SplineSet
212.478515625 125.430664062 m 2xc0
 64.4794921875 -197.569335938 l 2
 60.4033203125 -206.375976562 53.9560546875 -210.220703125 48.1328125 -210.220703125 c 3
 41.1396484375 -210.220703125 35.0478515625 -204.674804688 35.0478515625 -195.520507812 c 3xa0
 35.0478515625 -191.765625 36.072265625 -187.404296875 38.4794921875 -182.569335938 c 2
 163.946289062 64.4306640625 l 1
 135.762695312 49.9365234375 105.380859375 42.6904296875 72.7998046875 42.6904296875 c 3
 33.314453125 42.6904296875 0 62.666015625 0 101 c 3
 0 130.23828125 26.6474609375 155.880859375 57.330078125 155.880859375 c 3
 87.6318359375 155.880859375 116.478515625 132.549804688 116.478515625 104.430664062 c 3
 116.478515625 88.767578125 113.92578125 69.2724609375 101.009765625 69.2724609375 c 3
 118.618164062 69.2724609375 136.252929688 79.3349609375 154.6171875 90.865234375 c 0
 172.981445312 102.396484375 184.248046875 116.200195312 197.478515625 129.430664062 c 0
 199.869140625 131.821289062 203.091796875 132.888671875 205.987304688 132.888671875 c 3
 209.814453125 132.888671875 213.068359375 131.0234375 213.068359375 127.8828125 c 3
 213.068359375 127.134765625 212.883789062 126.315429688 212.478515625 125.430664062 c 2xc0
EndSplineSet
EndChar

StartChar: rest16
Encoding: 10 -1 9
Width: 300
Flags: W
HStem: 241 113.19<21.1594 100.522> 441.26 113.19<97.4799 176.225>
VStem: 0 116.479<267.985 342.333> 59.5869 44.2131<-9.90232 0> 76.3203 116.48<468.245 542.593>
LayerCount: 2
Fore
SplineSet
162.938 262.225 m 1xd0
 135.15 248.075 105.104 241 72.7998 241 c 0
 51.6206 241 34.1925 246.177 20.5155 256.531 c 0
 6.8385 266.885 -3.08829e-07 281.145 0 299.31 c 0
 0 312.843 5.37495 325.373 16.1248 336.9 c 0
 26.8747 348.427 40.6098 354.19 57.3301 354.19 c 0
 74.8052 354.19 89.0321 348.646 100.011 337.559 c 0
 110.99 326.471 116.479 314.865 116.479 302.74 c 0xe0
 116.479 287.076 111.323 275.357 101.01 267.582 c 1
 128.266 272.077 155.413 286.125 182.449 309.725 c 1
 247.051 467 l 1
 213.684 449.84 181.041 441.26 149.12 441.26 c 0
 127.941 441.26 110.513 446.437 96.8358 456.791 c 0
 83.1587 467.145 76.3202 481.404 76.3203 499.569 c 0
 76.3203 513.103 81.6952 525.634 92.4451 537.16 c 0
 103.195 548.687 116.93 554.45 133.65 554.45 c 0
 151.125 554.446 165.352 548.903 176.331 537.819 c 0
 187.31 526.731 192.8 515.125 192.8 503 c 0xc8
 192.8 487.336 187.643 475.617 177.33 467.842 c 1
 207.262 472.778 240.418 492.831 276.8 528 c 0
 281.01 532.067 285.106 534.101 289.09 534.101 c 0
 296.12 534.097 299.635 531.265 299.635 525.605 c 0
 299.635 524.476 299.023 522.273 297.798 518.995 c 2
 103.8 0 l 2
 99.7591 -10.8164 92.5764 -16.2246 82.252 -16.2246 c 0
 76.2587 -16.2246 70.9828 -14.1813 66.4245 -10.0947 c 0
 61.8661 -6.00813 59.5869 -0.802727 59.5869 5.52148 c 0
 59.5871 8.91453 60.3248 12.4074 61.7998 16 c 2
 162.938 262.225 l 1xd0
EndSplineSet
EndChar

StartChar: rest32
Encoding: 11 -1 10
Width: 323
Flags: W
HStem: 241.26 113.19<21.1807 100.315> 441.26 113.19<71.1806 150.543> 641.26 113.19<121.181 200.543>
VStem: 0.0214844 116.479<268.245 342.593> 50.0215 116.479<468.245 542.593> 100.021 116.479<668.245 742.593>
LayerCount: 2
Fore
SplineSet
231.221 475.048 m 1xf0
 214.455 465.682 195.748 457.709 175.098 451.13 c 0
 154.449 444.55 137.023 441.26 122.82 441.26 c 0
 101.641 441.261 84.2137 446.438 70.5368 456.791 c 0
 56.8599 467.145 50.0215 481.404 50.0215 499.569 c 0
 50.0215 513.102 55.3965 525.633 66.1464 537.16 c 0
 76.8963 548.687 90.6315 554.45 107.352 554.45 c 0
 124.826 554.45 139.053 548.906 150.032 537.819 c 0
 161.011 526.731 166.5 515.125 166.5 503 c 0xe8
 166.5 487.335 161.344 475.616 151.031 467.842 c 1
 185.037 473.449 215.887 490.893 243.579 520.173 c 1
 286.895 678.331 l 1
 270.165 668.29 250.74 659.602 228.621 652.267 c 0
 206.503 644.929 187.902 641.26 172.82 641.26 c 0
 151.641 641.26 134.214 646.437 120.537 656.791 c 0
 106.86 667.145 100.021 681.404 100.021 699.569 c 0
 100.021 713.102 105.396 725.633 116.146 737.16 c 0
 126.896 748.687 140.631 754.45 157.352 754.45 c 0
 174.826 754.45 189.053 748.906 200.032 737.819 c 0
 211.011 726.729 216.5 715.122 216.5 703 c 0xe4
 216.5 687.336 211.344 675.616 201.031 667.842 c 1
 218.761 670.766 236.765 677.873 255.045 689.163 c 0
 273.324 700.456 288.476 713.401 300.5 728 c 0
 303.645 732.558 307.763 734.837 312.853 734.837 c 0
 319.551 734.832 322.899 731.648 322.897 725.287 c 0
 322.897 724.239 322.765 723.144 322.5 722 c 2
 156.166 3.66406 l 2
 153.253 -8.91605 144.911 -15.2061 131.138 -15.2061 c 0
 124.033 -15.2061 117.802 -13.0715 112.444 -8.80216 c 0
 107.086 -4.53286 104.407 1.16617 104.407 8.29492 c 0
 104.407 10.7691 104.771 13.3375 105.5 16 c 2
 175.615 272.016 l 1
 136.524 251.512 102.259 241.26 72.8203 241.26 c 0
 51.6416 241.26 34.2138 246.437 20.5369 256.791 c 0
 6.85995 267.145 0.0214842 281.405 0.0214844 299.569 c 0
 0.0214842 313.102 5.39642 325.633 16.1463 337.16 c 0
 26.8962 348.687 40.6313 354.45 57.3516 354.45 c 0
 74.8262 354.449 89.0529 348.905 100.032 337.819 c 0
 111.011 326.73 116.5 315.124 116.5 303 c 0
 116.5 287.335 111.344 275.616 101.031 267.842 c 1
 131.465 272.861 160.122 288.112 187.003 313.595 c 1
 231.221 475.048 l 1xf0
EndSplineSet
EndChar

StartChar: rest64
Encoding: 12 -1 11
Width: 349
Flags: W
HStem: 41.2598 113.19<21.1807 100.543> 241.26 113.19<63.1807 142.543> 441.26 113.19<105.181 184.543> 641.26 113.19<147.181 226.543>
VStem: 0.0214844 116.479<68.2444 142.593> 42.0215 116.479<268.245 342.593> 84.0215 116.479<468.245 542.593> 126.021 116.479<668.245 742.593>
LayerCount: 2
Fore
SplineSet
312.895 678.331 m 1xf2
 296.164 668.29 276.74 659.602 254.621 652.267 c 0
 232.503 644.929 213.902 641.26 198.82 641.26 c 0
 177.641 641.26 160.214 646.437 146.537 656.791 c 0
 132.86 667.145 126.021 681.404 126.021 699.569 c 0
 126.021 713.102 131.396 725.633 142.146 737.16 c 0
 152.896 748.687 166.631 754.45 183.352 754.45 c 0
 200.826 754.45 215.053 748.906 226.032 737.819 c 0
 237.011 726.729 242.5 715.122 242.5 703 c 0
 242.5 687.336 237.344 675.616 227.031 667.842 c 1
 244.76 670.766 262.765 677.873 281.045 689.163 c 0
 299.324 700.456 314.476 713.401 326.5 728 c 0
 329.647 732.558 333.764 734.837 338.853 734.837 c 0
 345.549 734.832 348.897 731.648 348.897 725.287 c 0
 348.897 724.239 348.765 723.144 348.5 722 c 2
 172.166 -196.336 l 2
 169.507 -210.183 160.837 -217.107 146.156 -217.107 c 0
 137.737 -217.107 130.151 -214.479 123.4 -209.222 c 0
 116.649 -203.965 113.273 -197.286 113.273 -189.187 c 0
 113.273 -187.161 113.515 -185.099 114 -183 c 2
 172.518 70.417 l 1
 134.225 50.9789 100.993 41.2598 72.8203 41.2598 c 0
 51.6416 41.2598 34.2138 46.4368 20.5369 56.7907 c 0
 6.85994 67.1446 0.0214842 81.4042 0.0214844 99.5693 c 0xf9
 0.0214844 113.103 5.39642 125.633 16.1463 137.16 c 0
 26.8962 148.687 40.6313 154.45 57.3516 154.45 c 0
 74.8262 154.45 89.0529 148.906 100.032 137.819 c 0
 111.011 126.731 116.5 115.125 116.5 103 c 0
 116.5 87.3357 111.344 75.6163 101.031 67.8418 c 1
 128.732 72.41 155.485 85.9311 181.29 108.405 c 1
 219.272 272.892 l 1
 179.782 251.804 144.964 241.26 114.82 241.26 c 0
 93.6414 241.26 76.2137 246.437 62.5368 256.791 c 0
 48.8599 267.145 42.0215 281.405 42.0215 299.569 c 0
 42.0215 313.102 47.3964 325.633 58.1463 337.16 c 0
 68.8962 348.687 82.6313 354.45 99.3516 354.45 c 0
 116.826 354.45 131.053 348.906 142.032 337.819 c 0
 153.011 326.73 158.5 315.124 158.5 303 c 0xf4
 158.5 287.335 153.344 275.616 143.031 267.842 c 1
 173.25 272.825 201.766 287.942 228.579 313.193 c 1
 266.062 475.521 l 1
 249.287 466.055 230.469 457.979 209.607 451.291 c 0
 188.745 444.604 171.15 441.26 156.82 441.26 c 0
 135.641 441.261 118.214 446.438 104.537 456.791 c 0
 90.8599 467.145 84.0215 481.404 84.0215 499.569 c 0
 84.0215 513.102 89.3965 525.633 100.146 537.16 c 0
 110.896 548.687 124.631 554.45 141.352 554.45 c 0
 158.826 554.45 173.053 548.906 184.032 537.819 c 0
 195.011 526.731 200.5 515.125 200.5 503 c 0
 200.5 487.335 195.344 475.616 185.031 467.842 c 1
 218.122 473.299 248.442 490.19 275.991 518.517 c 1
 312.895 678.331 l 1xf2
EndSplineSet
EndChar

StartChar: rest128
Encoding: 13 -1 12
Width: 533
Flags: W
HStem: 41.2598 113.19<187.181 265.824> 241.26 113.19<223.181 301.804> 441.26 113.19<259.18 337.745> 641.26 113.19<295.181 374.271> 841.26 113.19<331.181 410.543>
VStem: 166.021 116.479<68.2444 142.593> 202.021 116.479<268.245 342.593> 238.021 116.479<468.245 542.593> 274.021 116.479<668.245 742.593> 285.431 60.735<-214.33 -154.324> 310.021 116.479<868.245 942.593>
LayerCount: 2
Fore
SplineSet
496.895 878.331 m 1xf880
 480.164 868.288 460.74 859.6 438.621 852.267 c 0
 416.503 844.926 397.902 841.257 382.82 841.26 c 0
 361.641 841.26 344.214 846.437 330.537 856.791 c 0
 316.859 867.145 310.021 881.404 310.021 899.569 c 0
 310.021 913.102 315.396 925.633 326.146 937.16 c 0
 336.896 948.687 350.632 954.45 367.352 954.45 c 0
 384.826 954.45 399.053 948.906 410.032 937.819 c 0
 421.011 926.729 426.5 915.123 426.5 903 c 0xf820
 426.498 887.336 421.342 875.616 411.031 867.842 c 1
 428.76 870.766 446.765 877.873 465.045 889.163 c 0
 483.325 900.454 498.476 913.399 510.5 928 c 0
 513.644 932.558 517.762 934.837 522.853 934.837 c 0
 529.551 934.83 532.899 931.647 532.897 925.287 c 0
 532.897 924.239 532.765 923.144 532.5 922 c 2
 346.166 -196.336 l 2
 343.927 -209.779 335.199 -216.501 319.983 -216.501 c 0
 311.138 -216.501 303.168 -213.814 296.074 -208.441 c 0
 288.979 -203.069 285.431 -196.128 285.431 -187.62 c 0
 285.431 -185.781 285.621 -183.908 286 -182 c 2
 335.948 69.1296 l 1
 298.376 50.5497 266 41.2598 238.82 41.2598 c 0
 217.641 41.2598 200.214 46.4368 186.537 56.7907 c 0
 172.859 67.1446 166.021 81.4042 166.021 99.5693 c 0
 166.021 113.103 171.396 125.633 182.146 137.16 c 0
 192.896 148.687 206.631 154.45 223.352 154.45 c 0
 240.827 154.45 255.053 148.906 266.032 137.819 c 0
 277.011 126.731 282.5 115.125 282.5 103 c 0xfc40
 282.499 87.3356 277.342 75.6162 267.031 67.8418 c 1
 292.865 72.102 318.203 84.4271 343.047 104.817 c 1
 376.15 271.252 l 1
 337.426 251.257 303.649 241.26 274.82 241.26 c 0
 253.641 241.26 236.214 246.437 222.537 256.791 c 0
 208.859 267.145 202.021 281.404 202.021 299.569 c 0
 202.021 313.102 207.396 325.633 218.146 337.16 c 0
 228.896 348.687 242.632 354.45 259.352 354.45 c 0
 276.826 354.45 291.053 348.906 302.032 337.819 c 0
 313.011 326.731 318.5 315.125 318.5 303 c 0xfa
 318.499 287.335 313.343 275.616 303.031 267.842 c 1
 330.869 272.433 357.723 286.042 383.591 308.668 c 1
 416.372 473.483 l 1
 376.634 452.001 341.45 441.26 310.82 441.26 c 0
 289.641 441.261 272.214 446.438 258.536 456.791 c 0
 244.859 467.145 238.021 481.404 238.021 499.569 c 0
 238.021 513.102 243.396 525.633 254.146 537.16 c 0
 264.896 548.687 278.632 554.45 295.352 554.45 c 0
 312.826 554.45 327.053 548.906 338.032 537.819 c 0
 349.011 526.731 354.5 515.125 354.5 503 c 0xf9
 354.499 487.335 349.342 475.616 339.031 467.842 c 1
 369.062 472.795 397.452 487.793 424.2 512.838 c 1
 456.619 675.836 l 1
 439.841 666.304 420.95 658.159 399.946 651.399 c 0
 378.943 644.64 361.234 641.26 346.82 641.26 c 0
 325.641 641.26 308.214 646.437 294.537 656.791 c 0
 280.859 667.145 274.021 681.404 274.021 699.569 c 0
 274.021 713.102 279.396 725.633 290.146 737.16 c 0
 300.896 748.687 314.631 754.45 331.352 754.45 c 0
 348.826 754.45 363.053 748.906 374.032 737.819 c 0
 385.011 726.729 390.5 715.122 390.5 703 c 0
 390.5 687.336 385.344 675.616 375.031 667.842 c 1
 407.507 673.199 437.458 689.714 464.884 717.389 c 1
 496.895 878.331 l 1xf880
EndSplineSet
EndChar

StartChar: gclef
Encoding: 14 -1 13
Width: 526
VWidth: 800
Flags: HMW
LayerCount: 2
Fore
SplineSet
211.004882812 -81.525390625 m 0
 192.796875 -71.376953125 178.415039062 -56.572265625 167.859375 -37.1123046875 c 0
 155.363532745 -14.0733845709 150.842357163 4.64368579003 150.842357163 30.9425296729 c 0
 150.842357163 71.2115910857 159.608000232 107.075868222 177.141601562 138.536132812 c 0
 196.103515625 172.564453125 222.760742188 197.485351562 257.111328125 213.30078125 c 1
 235.854492188 339.690429688 l 1
 172.331054688 269.330078125 119.100585938 188.411132812 86.69140625 114.53125 c 0
 76.271484375 90.7783203125 71.0625 62.302734375 71.0625 29.103515625 c 0
 71.0625 -95 148 -176.163085938 287.676757812 -176.163085938 c 0
 294.571289062 -176.163085938 301.594726562 -175.92578125 308.743164062 -175.4453125 c 1
 299.7421875 -90.1416015625 286.112304688 10.81640625 270.131835938 123.501953125 c 1
 242.481445312 116.541015625 221.4296875 103.291015625 206.97265625 83.7490234375 c 0
 193.421138517 65.4285652997 186.64497733 43.5719443841 186.64497733 18.1815746157 c 0
 186.64497733 -16 193.460197388 -48.2280381633 221.779296875 -68.90234375 c 0
 224.434301323 -70.8420636149 225.691527222 -72.9922271678 225.691527222 -75.8744935369 c 0
 225.691527222 -80.6655265197 222.748429008 -83.4304305367 217.166193125 -83.265289481 c 0
 215.138460319 -83.2053024179 213.083803101 -82.6858680413 211.004882812 -81.525390625 c 0
302.262695312 129.766601562 m 1
 319.004882812 12.7861328125 331.84375 -90.1337890625 340.5 -171 c 1
 415 -152 459.82373917 -84 459.82373917 -19.5979432604 c 0
 459.82373917 58.5337789311 401.559273131 130.119800587 313.104536968 130.119800587 c 0
 309.539030058 130.119800587 305.924469944 130.003487493 302.262695312 129.766601562 c 1
310.780273438 -206.84375 m 1
 301.506133934 -207.602319997 292.479735592 -207.970538545 283.694089008 -207.970538545 c 0
 163.473194756 -207.970538545 88.33203125 -168.0234375 40.3623046875 -86.837890625 c 0
 11.1669921875 -37.4228515625 -3.3212890625 12.3046875 -3.3212890625 71.8359375 c 0
 -3.3212890625 164.755859375 35.4560546875 271.797851562 113.01171875 354.965820312 c 0
 154.633789062 399.600585938 189.991210938 433.185546875 217 466 c 1
 212.532634047 498.760683657 202.151976668 519.202010179 192.829137571 542 c 0
 183.370092052 565.131067824 154 641 154 688 c 0
 154 804 192 845 265 920 c 1
 326 839 375 797 375 657 c 0
 375 531 331 435 264.5 368 c 1
 288.5 225 l 1
 302.784179688 228.743164062 316.283562586 230.413085938 331.903320312 230.413085938 c 0
 430 230.413085938 526 129 524.369870941 14.8307280729 c 0
 522.722714258 -100.531106753 441.624023438 -182.206054688 343.6171875 -202.716796875 c 1
 352.669921875 -292.821289062 358.637695312 -349.001953125 358.637695312 -405.313476562 c 0
 358.637695312 -489.248856783 295.577148438 -552.297851562 212.56640625 -552.297851562 c 0
 174.185546875 -552.297851562 137.092773438 -538.669921875 109.290039062 -513.416015625 c 0
 79.3671875 -486.237304688 64.1015625 -448.223632812 64.1015625 -404.3359375 c 0
 64.1015625 -350.673828125 104.174453708 -312.540704463 158.6418037 -312.540704463 c 0
 204.383157481 -312.540704463 242.242865085 -350.109841576 242.242865085 -395.839555638 c 0
 242.242865085 -440.271377964 201.833112661 -473.733052188 158.078501419 -473.733052188 c 0
 145.365351483 -473.733052188 117.345703125 -470.611328125 107.130859375 -461.541992188 c 1
 128.492472172 -497.5 169.842113796 -524.201366414 215.66879979 -524.201366414 c 0
 281.223373832 -524.201366414 325.262728086 -463.910265208 325.262728086 -396.735550513 c 0
 325.262728086 -349.067719245 319.107421875 -290.6328125 310.780273438 -206.84375 c 1
243.5 498 m 1
 289.948242188 562.874023438 331 602.533203125 331 696.533203125 c 0
 331 745 312 792 290 825 c 1
 208 742 211 653 211 633 c 0
 211 575 233 546 243.5 498 c 1
EndSplineSet
EndChar

StartChar: fclef
Encoding: 15 -1 14
Width: 667
VWidth: 399
Flags: HW
HStem: -144 88<553.408 614.593> -75 150<139.953 243.366> 56 88<553.408 614.593> 186.265 28<209.444 323.064>
VStem: 97 36.5<44.7979 113.891> 406 92<-159.74 79.436> 540 88<-130.593 -69.4075 69.4076 130.593>
LayerCount: 2
Fore
SplineSet
443 -100 m 0x9e
 443.00390625 -88 447.336914062 -77.6669921875 456 -69 c 0
 464.66796875 -60.330078125 475.000976562 -55.99609375 487 -56 c 0
 499.000976562 -56 509.333984375 -60.3330078125 518 -69 c 0
 526.672851562 -77.6669921875 531.005859375 -88 531 -100 c 0
 531 -112.000976562 526.666992188 -122.333984375 518 -131 c 0
 509.333007812 -139.66796875 499 -144.000976562 487 -144 c 0
 475 -144 464.666992188 -139.666992188 456 -131 c 0
 447.333007812 -122.333007812 443 -112 443 -100 c 0x9e
443 100 m 0
 443.00390625 112.000976562 447.336914062 122.333984375 456 131 c 0
 464.66796875 139.668945312 475.000976562 144.001953125 487 144 c 0
 499.000976562 144 509.333984375 139.666992188 518 131 c 0
 526.672851562 122.333007812 531.005859375 112 531 100 c 0
 531 88 526.666992188 77.6669921875 518 69 c 0
 509.333007812 60.3330078125 499 56 487 56 c 0x3e
 475 56.001953125 464.666992188 60.3349609375 456 69 c 0
 447.333007812 77.669921875 443 88.0029296875 443 100 c 0
36.5 44.7978515625 m 1
 53 73.7978515625 84.6669921875 75.005859375 104 75 c 0
 140.134765625 75 173 39.3642578125 173 3 c 0
 173 -38.44921875 135.735351562 -75 94 -75 c 0x5e
 41.22265625 -75 0 -28.197265625 0 26 c 0
 0 79.3330078125 13.5 120.666992188 44.5 158 c 0
 75.5 195.333007812 120.833007812 214.931640625 179.5 214.264648438 c 0
 248.833007812 213.59765625 304.333007812 191.333007812 343 142 c 0
 381.666992188 92.666015625 401 32 401 -40 c 0
 401 -91.3330078125 391 -138.833007812 371 -182.5 c 0
 351 -226.166992188 322.5 -264.333984375 285.5 -297 c 0
 248.5 -329.666992188 209.5 -357.833007812 168.5 -381.5 c 0
 127.5 -405.166992188 81 -427.333007812 29 -448 c 0
 21.697265625 -450.920898438 15.5263671875 -450.244140625 10.48828125 -445.967773438 c 0
 5.44921875 -441.692382812 3.435546875 -436.240234375 4.447265625 -429.61328125 c 0
 5.4580078125 -422.985351562 9.6416015625 -418.280273438 17 -415.5 c 0
 109.553710938 -380.52734375 167.327148438 -331.173828125 220.5 -266.184570312 c 0
 256.5 -222.184570312 291 -115.36328125 291 -20 c 0
 291 77.96875 256.5 186.264648438 174 186.264648438 c 0
 138.666992188 186.264648438 93.8330078125 171.797851562 72.5 143.797851562 c 0
 51.1669921875 115.797851562 36.5 74.7978515625 36.5 44.7978515625 c 1
EndSplineSet
EndChar

StartChar: cclef
Encoding: 16 -1 15
Width: 905
VWidth: 600
Flags: W
HStem: -421.5 23.0996<594.13 678.454> -373.4 128.4<566.116 619.654> -64.4004 22.9004<611.802 672.567> 39.5 22.9004<611.916 672.082> 243 128.4<566.116 619.654> 396.4 23.0996<594.13 678.454>
VStem: 290 85<-415 415> 440 25<-417 -14.623 12.623 415> 509.066 125.5<-362.967 -262.673 260.673 360.967> 728.566 96<-325.085 -138.71 136.946 322.118>
LayerCount: 2
Fore
SplineSet
440 -417 m 1
 440 415 l 1
 465 415 l 1
 465 12.623046875 l 1
 512.055664062 52.2392578125 543.017578125 103.698242188 557.884765625 167 c 1
 572.918945312 127.87109375 592.672851562 62.37890625 645.616210938 62.400390625 c 3
 696.271484375 62.400390625 728.56640625 166.408370544 728.56640625 220.5 c 3
 728.56640625 292.913617387 705.844468341 396.400390625 649.116210938 396.400390625 c 3
 621.812932766 396.400390625 584.108398438 383.702148438 566.116210938 371.400390625 c 1
 617.616577148 375.399963379 634.56640625 345.09368773 634.56640625 305.5 c 3
 634.56640625 271.792296994 608.603766767 243 574.5 243 c 3
 538.68016518 243 509.06640625 273.90698402 509.06640625 309.5 c 3
 509.06640625 344.473632812 523.09375 371.55078125 551.150390625 390.731445312 c 0
 579.206054688 409.913085938 612.156249887 419.5 650 419.5 c 3
 695.970703135 419.5 736.556640625 401.908203125 771.759765625 366.721679688 c 0
 806.96484375 331.53515625 824.567382812 284.127929688 824.56640625 224.5 c 3
 824.56640625 176.299804688 808.045898438 133.416015625 775.004882812 95.849609375 c 0
 741.96484375 58.283203125 706.818359375 39.5 669.56640625 39.5 c 3
 637.616577148 39.5 596.79296875 43.8330078125 581.56640625 52.5 c 1
 570.401367188 29.3896484375 560.182617188 12.2783203125 539.182617188 -1 c 1
 560.182617188 -14.2783203125 570.401367188 -31.3896484375 581.56640625 -54.5 c 1
 596.79296875 -45.8330078125 637.616210938 -41.5 669.56640625 -41.5 c 3
 706.818359375 -41.5 741.96484375 -60.283203125 775.004882812 -97.849609375 c 0
 808.045898438 -135.416015625 824.56640625 -178.299804688 824.56640625 -226.5 c 3
 824.56640625 -286.127929696 806.96484375 -333.53515625 771.759765625 -368.721679688 c 0
 736.556640625 -403.908203125 695.970703135 -421.5 650 -421.5 c 3
 612.156249887 -421.5 579.206054688 -411.913085938 551.150390625 -392.731445312 c 0
 523.09375 -373.55078125 509.06640625 -346.473632812 509.06640625 -311.5 c 3
 509.06640625 -275.907226562 538.6796875 -245 574.5 -245 c 3
 608.603515625 -245 634.552734375 -273.791992188 634.56640625 -307.5 c 3
 634.56640625 -347.09375 617.616210938 -377.400390625 566.116210938 -373.400390625 c 1
 584.108398438 -385.702148438 621.812932766 -398.400390625 649.116210938 -398.400390625 c 3
 705.844468341 -398.400390625 728.56640625 -294.9140625 728.56640625 -222.5 c 3
 728.56640625 -168.408203125 696.271484375 -64.400390625 645.616210938 -64.400390625 c 3
 592.672847203 -64.400390625 572.918945312 -129.87109375 557.884765625 -169 c 1
 543.017578125 -105.698242188 512.055664062 -54.2392578125 465 -14.623046875 c 1
 465 -417 l 1
 440 -417 l 1
290 -415 m 25
 290 415 l 1
 375 415 l 1
 375 -415 l 1
 290 -415 l 25
EndSplineSet
EndChar

StartChar: flag16up
Encoding: 18 -1 16
Width: 247
Flags: HW
HStem: -20 20G<-13 0>
VStem: -13 13<-179.133 -144.256 -24.1333 0> 168 29<-560.184 -441.86 -386.913 -284.776>
LayerCount: 2
Fore
SplineSet
154.852539062 -661.125976562 m 4
 152.304131885 -664.532107135 147.862304688 -667.084960938 143.950195312 -667.084960938 c 7
 137.225585938 -667.084960938 131.59765625 -659.831054688 131.59765625 -653.171875 c 7
 131.59765625 -650.329101562 133.642466148 -646.797183052 135.477539062 -644.375976562 c 4
 158.5 -614 173.5 -579 173.5 -523 c 4
 173.5 -482 145.833 -417.5 101.5 -374.5 c 4
 57.1667 -331.5 19 -304.667 -13 -294 c 5
 -13 0 l 5
 0 0 l 5
 0 -21.5390103505 23.90178504 -63.2887300394 36 -77 c 4
 96.0673299054 -145.647457643 197 -217.065859379 197 -339 c 4
 197 -373.023 192.391 -401.725 183.173 -425.107 c 5
 192.391 -448.557 198.5 -492 198.5 -519 c 4
 198.5 -586 184.5 -621.5 154.852539062 -661.125976562 c 4
0 -144.256 m 5
 0 -155 l 6
 -2.93905524917e-15 -203 21.9013671875 -231.2890625 34 -245 c 4
 78.109375 -293.86328125 130.908657536 -329.233144359 164.825 -387.593 c 5
 167.611 -373.098 169 -357.233000116 169 -340 c 4
 169 -302 148.181640625 -262.840820312 109.5 -223 c 4
 70.8173828125 -183.159179688 32 -152 0 -144.256 c 5
EndSplineSet
EndChar

StartChar: flag32up
Encoding: 19 -1 17
Width: 247
Flags: HW
HStem: -20 20G<-13 0>
VStem: -13 13<-179.133 -144.256 -24.1333 0> 168 29<-560.184 -441.86 -386.913 -284.776>
LayerCount: 2
Fore
SplineSet
154.852539062 -816.125976562 m 4
 152.303710938 -819.532226562 147.862304688 -822.084960938 143.950195312 -822.084960938 c 4
 137.225585938 -822.084960938 131.59765625 -814.831054688 131.59765625 -808.171875 c 4
 131.59765625 -805.329101562 133.642578125 -801.796875 135.477539062 -799.375976562 c 4
 158.5 -769 173.5 -734 173.5 -678 c 4
 173.5 -637 145.833007812 -572.5 101.5 -529.5 c 4
 57.1669921875 -486.5 19 -459.666992188 -13 -449 c 5
 -13 -299.333333333 -13 -149.666666667 -13 0 c 5
 0 0 l 5
 0 -21.5390103505 23.90178504 -63.2887300394 36 -77 c 4
 96.0673299054 -145.647457643 197 -217.065859379 197 -339 c 4
 197 -371.468656542 192.802370312 -399.0913881 184.407368951 -421.869063784 c 5
 192.33241065 -443.893135767 197.000000002 -467.778507656 197 -494 c 4
 197 -528.0234375 192.390625 -556.724609375 183.172851562 -580.107421875 c 5
 192.390625 -603.556640625 198.5 -647 198.5 -674 c 4
 198.5 -741 184.5 -776.5 154.852539062 -816.125976562 c 4
0 -299.255859375 m 5
 0 -310 l 6
 -0 -358 21.9013671875 -386.2890625 34 -400 c 4
 78.109375 -448.86328125 130.908007812 -484.233398438 164.825 -542.592773438 c 5
 167.611132812 -528.09765625 169 -512.233398438 169 -495 c 4
 169 -457 148.181640625 -417.840820312 109.5 -378 c 4
 70.8173828125 -338.159179688 32 -307 0 -299.255859375 c 5
165.794413929 -382.153185434 m 5
 167.933266004 -369.153627235 168.999999945 -355.102116829 169 -340 c 4
 169 -302 148.181640625 -262.840820312 109.5 -223 c 4
 70.8173828125 -183.159179688 32 -152 0 -144.256 c 5
 0 -155 l 6
 0 -176.5390625 23.9013671875 -218.2890625 36 -232 c 4
 74.9715704527 -276.538304069 131.144881284 -322.242820857 165.794413929 -382.153185434 c 5
EndSplineSet
EndChar

StartChar: flag64up
Encoding: 20 -1 18
Width: 247
Flags: HW
HStem: -20 20G<-13 0>
VStem: -13 13<-179.133 -144.256 -24.1333 0> 168 29<-560.184 -441.86 -386.913 -284.776>
LayerCount: 2
Fore
SplineSet
165.793945312 -537.153320312 m 5
 167.93359375 -524.153320312 169 -510.102539062 169 -495 c 4
 169 -457 148.181640625 -417.840820312 109.5 -378 c 4
 70.8173828125 -338.159179688 32 -307 0 -299.255859375 c 5
 0 -310 l 6
 0 -331.5390625 23.9013671875 -373.2890625 36 -387 c 4
 74.9716796875 -431.538085938 131.14453125 -477.243164062 165.793945312 -537.153320312 c 5
0 -454.255859375 m 5
 0 -465 l 6
 0 -513 21.9013671875 -541.2890625 34 -555 c 4
 78.109375 -603.86328125 130.908007812 -639.233398438 164.825 -697.592773438 c 5
 167.611132812 -683.09765625 169 -667.233398438 169 -650 c 4
 169 -612 148.181640625 -572.840820312 109.5 -533 c 4
 70.8173828125 -493.159179688 32 -462 0 -454.255859375 c 5
154.852539062 -971.125976562 m 4
 152.303710938 -974.532226562 147.862304688 -977.084960938 143.950195312 -977.084960938 c 4
 137.225585938 -977.084960938 131.59765625 -969.831054688 131.59765625 -963.171875 c 4
 131.59765625 -960.329101562 133.642578125 -956.796875 135.477539062 -954.375976562 c 4
 158.5 -924 173.5 -889 173.5 -833 c 4
 173.5 -792 145.833007812 -727.5 101.5 -684.5 c 4
 57.1669921875 -641.5 19 -614.666992188 -13 -604 c 5
 -13 -402.666666667 -13 -201.333333333 -13 0 c 5
 0 0 l 5
 0 -21.5390103505 23.90178504 -63.2887300394 36 -77 c 4
 96.0673299054 -145.647457643 197 -217.065859379 197 -339 c 4
 197 -371.468656542 192.802370312 -399.0913881 184.407368951 -421.869063784 c 5
 192.33241065 -443.893135767 197.000000002 -467.778507656 197 -494 c 4
 197 -526.46875 192.802734375 -554.091796875 184.407226562 -576.869140625 c 5
 192.33203125 -598.893554688 197 -622.778320312 197 -649 c 4
 197 -683.0234375 192.390625 -711.724609375 183.172851562 -735.107421875 c 5
 192.390625 -758.556640625 198.5 -802 198.5 -829 c 4
 198.5 -896 184.5 -931.5 154.852539062 -971.125976562 c 4
165.794413929 -382.153185434 m 5
 167.933266004 -369.153627235 168.999999945 -355.102116829 169 -340 c 4
 169 -302 148.181640625 -262.840820312 109.5 -223 c 4
 70.8173828125 -183.159179688 32 -152 0 -144.256 c 5
 0 -155 l 6
 0 -176.5390625 23.9013671875 -218.2890625 36 -232 c 4
 74.9715704527 -276.538304069 131.144881284 -322.242820857 165.794413929 -382.153185434 c 5
EndSplineSet
EndChar

StartChar: flag32down
Encoding: 24 -1 19
Width: 247
Flags: HW
HStem: 0 20G<-13 0>
VStem: -13 13<144.256 179.133 0 24.1333> 168 29<441.86 560.184 284.776 386.913>
LayerCount: 2
Fore
SplineSet
154.852539062 816.125976562 m 4
 152.303710938 819.532226562 147.862304688 822.084960938 143.950195312 822.084960938 c 4
 137.225585938 822.084960938 131.59765625 814.831054688 131.59765625 808.171875 c 4
 131.59765625 805.329101562 133.642578125 801.796875 135.477539062 799.375976562 c 4
 158.5 769 173.5 734 173.5 678 c 4
 173.5 637 145.833007812 572.5 101.5 529.5 c 4
 57.1669921875 486.5 19 459.666992188 -13 449 c 5
 -13 299.333007812 -13 149.666992188 -13 0 c 5
 0 0 l 5
 0 21.5390625 23.9013671875 63.2890625 36 77 c 4
 96.0673828125 145.647460938 197 217.065429688 197 339 c 4
 197 371.46875 192.802734375 399.091796875 184.407226562 421.869140625 c 5
 192.33203125 443.893554688 197 467.778320312 197 494 c 4
 197 528.0234375 192.390625 556.724609375 183.172851562 580.107421875 c 5
 192.390625 603.556640625 198.5 647 198.5 674 c 4
 198.5 741 184.5 776.5 154.852539062 816.125976562 c 4
0 299.255859375 m 5
 0 310 l 6
 0 358 21.9013671875 386.2890625 34 400 c 4
 78.109375 448.86328125 130.908203125 484.233398438 164.825195312 542.592773438 c 5
 167.611328125 528.09765625 169 512.233398438 169 495 c 4
 169 457 148.181640625 417.840820312 109.5 378 c 4
 70.8173828125 338.159179688 32 307 0 299.255859375 c 5
165.793945312 382.153320312 m 5
 167.93359375 369.153320312 169 355.102539062 169 340 c 4
 169 302 148.181640625 262.840820312 109.5 223 c 4
 70.8173828125 183.159179688 32 152 0 144.255859375 c 5
 0 155 l 6
 0 176.5390625 23.9013671875 218.2890625 36 232 c 4
 74.9716796875 276.538085938 131.14453125 322.243164062 165.793945312 382.153320312 c 5
EndSplineSet
EndChar

StartChar: flag64down
Encoding: 25 -1 20
Width: 247
Flags: HW
HStem: 0 20G<-13 0>
VStem: -13 13<144.256 179.133 0 24.1333> 168 29<441.86 560.184 284.776 386.913>
LayerCount: 2
Fore
SplineSet
165.793945312 537.153320312 m 5
 167.93359375 524.153320312 169 510.102539062 169 495 c 4
 169 457 148.181640625 417.840820312 109.5 378 c 4
 70.8173828125 338.159179688 32 307 0 299.255859375 c 5
 0 310 l 6
 0 331.5390625 23.9013671875 373.2890625 36 387 c 4
 74.9716796875 431.538085938 131.14453125 477.243164062 165.793945312 537.153320312 c 5
0 454.255859375 m 5
 0 465 l 6
 0 513 21.9013671875 541.2890625 34 555 c 4
 78.109375 603.86328125 130.908203125 639.233398438 164.825195312 697.592773438 c 5
 167.611328125 683.09765625 169 667.233398438 169 650 c 4
 169 612 148.181640625 572.840820312 109.5 533 c 4
 70.8173828125 493.159179688 32 462 0 454.255859375 c 5
154.852539062 971.125976562 m 4
 152.303710938 974.532226562 147.862304688 977.084960938 143.950195312 977.084960938 c 4
 137.225585938 977.084960938 131.59765625 969.831054688 131.59765625 963.171875 c 4
 131.59765625 960.329101562 133.642578125 956.796875 135.477539062 954.375976562 c 4
 158.5 924 173.5 889 173.5 833 c 4
 173.5 792 145.833007812 727.5 101.5 684.5 c 4
 57.1669921875 641.5 19 614.666992188 -13 604 c 5
 -13 402.666992188 -13 201.333007812 -13 0 c 5
 0 0 l 5
 0 21.5390625 23.9013671875 63.2890625 36 77 c 4
 96.0673828125 145.647460938 197 217.065429688 197 339 c 4
 197 371.46875 192.802734375 399.091796875 184.407226562 421.869140625 c 5
 192.33203125 443.893554688 197 467.778320312 197 494 c 4
 197 526.46875 192.802734375 554.091796875 184.407226562 576.869140625 c 5
 192.33203125 598.893554688 197 622.778320312 197 649 c 4
 197 683.0234375 192.390625 711.724609375 183.172851562 735.107421875 c 5
 192.390625 758.556640625 198.5 802 198.5 829 c 4
 198.5 896 184.5 931.5 154.852539062 971.125976562 c 4
165.793945312 382.153320312 m 5
 167.93359375 369.153320312 169 355.102539062 169 340 c 4
 169 302 148.181640625 262.840820312 109.5 223 c 4
 70.8173828125 183.159179688 32 152 0 144.255859375 c 5
 0 155 l 6
 0 176.5390625 23.9013671875 218.2890625 36 232 c 4
 74.9716796875 276.538085938 131.14453125 322.243164062 165.793945312 382.153320312 c 5
EndSplineSet
EndChar

StartChar: flag128down
Encoding: 26 -1 21
Width: 247
Flags: HW
HStem: 0 20G<-13 0>
VStem: -13 13<144.256 179.133 0 24.1333> 168 29<441.86 560.184 284.776 386.913>
LayerCount: 2
Fore
SplineSet
165.793945312 537.153320312 m 1
 167.93359375 524.153320312 169 510.102539062 169 495 c 0
 169 457 148.181640625 417.840820312 109.5 378 c 0
 70.8173828125 338.159179688 32 307 0 299.255859375 c 1
 0 310 l 2
 0 331.5390625 23.9013671875 373.2890625 36 387 c 0
 74.9716796875 431.538085938 131.14453125 477.243164062 165.793945312 537.153320312 c 1
154.852539062 1126.12597656 m 0
 152.303710938 1129.53222656 147.862304688 1132.08496094 143.950195312 1132.08496094 c 0
 137.225585938 1132.08496094 131.59765625 1124.83105469 131.59765625 1118.171875 c 0
 131.59765625 1115.32910156 133.642578125 1111.796875 135.477539062 1109.37597656 c 0
 158.5 1079 173.5 1044 173.5 988 c 0
 173.5 947 145.833007812 882.5 101.5 839.5 c 0
 57.1669921875 796.5 19 769.666992188 -13 759 c 1
 -13 506 -13 253 -13 0 c 1
 0 0 l 1
 0 21.5390625 23.9013671875 63.2890625 36 77 c 0
 96.0673828125 145.647460938 197 217.065429688 197 339 c 0
 197 371.46875 192.802734375 399.091796875 184.407226562 421.869140625 c 1
 192.33203125 443.893554688 197 467.778320312 197 494 c 0
 197 526.46875 192.802734375 554.091796875 184.407226562 576.869140625 c 1
 192.33203125 598.893554688 197 622.778320312 197 649 c 0
 197 681.46875 192.802734375 709.091796875 184.407226562 731.869140625 c 1
 192.33203125 753.893554688 197 777.778320312 197 804 c 0
 197 838.0234375 192.390625 866.724609375 183.172851562 890.107421875 c 1
 192.390625 913.556640625 198.5 957 198.5 984 c 0
 198.5 1051 184.5 1086.5 154.852539062 1126.12597656 c 0
0 609.255859375 m 1
 0 620 l 2
 0 668 21.9013671875 696.2890625 34 710 c 0
 78.109375 758.86328125 130.908203125 794.233398438 164.825195312 852.592773438 c 1
 167.611328125 838.09765625 169 822.233398438 169 805 c 0
 169 767 148.181640625 727.840820312 109.5 688 c 0
 70.8173828125 648.159179688 32 617 0 609.255859375 c 1
165.793945312 692.153320312 m 1
 167.93359375 679.153320312 169 665.102539062 169 650 c 0
 169 612 148.181640625 572.840820312 109.5 533 c 0
 70.8173828125 493.159179688 32 462 0 454.255859375 c 1
 0 465 l 2
 0 486.5390625 23.9013671875 528.2890625 36 542 c 0
 74.9716796875 586.538085938 131.14453125 632.243164062 165.793945312 692.153320312 c 1
165.793945312 382.153320312 m 1
 167.93359375 369.153320312 169 355.102539062 169 340 c 0
 169 302 148.181640625 262.840820312 109.5 223 c 0
 70.8173828125 183.159179688 32 152 0 144.255859375 c 1
 0 155 l 2
 0 176.5390625 23.9013671875 218.2890625 36 232 c 0
 74.9716796875 276.538085938 131.14453125 322.243164062 165.793945312 382.153320312 c 1
EndSplineSet
EndChar

StartChar: flag8narrow
Encoding: 27 -1 22
Width: 149
Flags: HW
HStem: -19.999 20G<-13.5713 0>
VStem: -13.5713 13.5713<-31.103 0> 118.421 30.008<-491.293 -323.933>
LayerCount: 2
Fore
SplineSet
37.4287 -98.999 m 0
 73.1252 -149.569 100.549 -198.363 119.701 -245.382 c 0
 138.853 -292.4 148.429 -346.272 148.429 -406.999 c 0
 148.429 -429.323 144.677 -454.681 137.174 -483.073 c 0
 129.671 -511.464 116.977 -536.689 99.0918 -558.749 c 0
 95.4621 -563.226 90.7635 -564.88 84.9958 -563.712 c 0
 79.2281 -562.545 75.3394 -559.676 73.3297 -555.106 c 0
 71.32 -550.536 72.1157 -545.5 75.7168 -539.999 c 1
 104.2 -505.703 118.435 -461.481 118.421 -407.333 c 0
 118.408 -358.152 103.925 -310.864 74.9703 -265.469 c 0
 46.0158 -220.075 16.5019 -191.251 -13.5713 -178.999 c 1
 -13.5713 0.000976562 l 1
 0 0 l 1
 -0.0479178 -7.89722 3.56716 -22.6724 10.8452 -44.3254 c 0
 18.1233 -65.9784 26.9844 -84.203 37.4287 -98.999 c 0
EndSplineSet
EndChar

StartChar: flag16narrow
Encoding: 28 -1 23
Width: 149
Flags: W
HStem: -20 20G<-13 0>
VStem: -13 13<-179.133 -144.677 -24.1333 0> 94.7357 47.2643<-599.097 -534.917> 120 29<-568.94 -427.664 -359.614 -271.813>
LayerCount: 2
Fore
SplineSet
36 -77 m 0xd0
 111.333 -160.333 149 -248 149 -340 c 0
 149 -371.23 145.739 -396.328 139.218 -415.294 c 1
 145.739 -441.575 149 -468.144 149 -495 c 0xd0
 149 -508.333 146.667 -526 142 -548 c 0
 137.333 -569.998 129.667 -587.665 119 -601 c 0
 116.193 -604.318 112.818 -605.977 108.875 -605.977 c 0
 105.191 -605.977 101.914 -604.618 99.0425 -601.901 c 0
 96.1713 -599.184 94.7357 -595.983 94.7357 -592.299 c 0xe0
 94.7357 -589.792 95.4905 -587.359 97 -585 c 0
 112.333 -561.667 120 -531.667 120 -495 c 0
 120 -456.333 104.833 -415.5 74.5 -372.5 c 0
 44.1667 -329.5 15 -303.334 -13 -294 c 1
 -13 0 l 1
 0 0 l 1
 0 -6 3.5 -17.5 10.5 -34.5 c 0
 17.5 -51.5 26 -65.6667 36 -77 c 0xd0
120.547 -360.134 m 1
 120.849 -355.891 121 -349.513 121 -341 c 0
 121 -305.335 107.805 -267.436 81.4137 -227.305 c 0
 55.0228 -187.174 27.8849 -159.631 0 -144.677 c 1
 0 -155 l 2
 0 -161 3.5 -172.5 10.5 -189.5 c 0
 17.5 -206.5 26 -220.667 36 -232 c 0
 73.4475 -273.481 101.63 -316.192 120.547 -360.134 c 1
EndSplineSet
EndChar

StartChar: flag32narrow
Encoding: 29 -1 24
Width: 247
Flags: W
HStem: -20 20G<-13 0>
VStem: -13 13<-333.133 -298.677 -178.133 -144.677 -24.1333 0> 94.7354 47.2646<-753.094 -688.917> 120 29<-722.941 -581.664 -513.614 -425.898 -358.147 -271.813>
LayerCount: 2
Fore
SplineSet
36 -77 m 0xd0
 111.333 -160.333 149 -248 149 -340 c 0
 149 -371.008 145.787 -395.966 139.361 -414.874 c 1
 145.787 -440.964 149 -467.339 149 -494 c 0
 149 -525.23 145.739 -550.328 139.218 -569.294 c 1
 145.739 -595.575 149 -622.144 149 -649 c 0xd0
 149 -662.332 146.667 -679.998 142 -702 c 0
 137.333 -723.999 129.667 -741.665 119 -755 c 0
 116.191 -758.308 112.816 -759.968 108.875 -759.978 c 0
 105.191 -759.99 101.914 -758.631 99.0423 -755.902 c 0
 96.1707 -753.195 94.735 -749.994 94.7354 -746.299 c 0xe0
 94.7354 -743.788 95.4903 -741.355 97 -739 c 0
 112.333 -715.667 120 -685.667 120 -649 c 0
 120 -610.334 104.833 -569.5 74.5 -526.5 c 0
 44.1667 -483.5 15 -457.333 -13 -448 c 1
 -13 0 l 1
 -0 0 l 1
 0 -6 3.5 -17.5 10.5 -34.5 c 0
 17.5 -51.5 26 -65.6667 36 -77 c 0xd0
-0 -298.677 m 1
 -0 -309 l 2
 0 -315 3.5 -326.5 10.5 -343.5 c 0
 17.5 -360.5 26 -374.667 36 -386 c 0
 73.4482 -427.48 101.63 -470.191 120.547 -514.134 c 1
 120.849 -509.889 121 -503.511 121 -495 c 0
 121 -459.335 107.805 -421.437 81.4139 -381.305 c 0
 55.0231 -341.174 27.8851 -313.632 -0 -298.677 c 1
-0 -144.677 m 1
 -0 -154 l 2
 0 -160 3.5 -171.5 10.5 -188.5 c 0
 17.5 -205.5 26 -219.667 36 -231 c 0
 73.4867 -272.523 101.688 -315.28 120.605 -359.271 c 1
 120.868 -355.271 121 -349.18 121 -341 c 0
 121 -305.335 107.805 -267.437 81.4139 -227.305 c 0
 55.0231 -187.174 27.8851 -159.632 -0 -144.677 c 1
EndSplineSet
EndChar

StartChar: flag64narrow
Encoding: 30 -1 25
Width: 247
Flags: W
HStem: -20 20G<-13 0>
VStem: -13 13<-487.133 -452.677 -332.133 -298.677 -178.133 -144.677 -24.1333 0> 94.7354 47.2646<-907.094 -842.917> 120 29<-876.941 -735.664 -667.614 -579.897 -512.147 -425.898 -358.147 -271.813>
LayerCount: 2
Fore
SplineSet
36 -77 m 0xd0
 111.333 -160.333 149 -248 149 -340 c 0
 149 -371.008 145.787 -395.966 139.361 -414.874 c 1
 145.787 -440.964 149 -467.339 149 -494 c 0
 149 -525.008 145.787 -549.966 139.361 -568.874 c 1
 145.787 -594.962 149 -621.338 149 -648 c 0
 149 -679.23 145.739 -704.328 139.218 -723.294 c 1
 145.739 -749.575 149 -776.144 149 -803 c 0xd0
 149 -816.332 146.667 -833.999 142 -856 c 0
 137.333 -877.999 129.667 -895.665 119 -909 c 0
 116.191 -912.321 112.816 -913.98 108.875 -913.978 c 0
 105.191 -913.976 101.914 -912.617 99.0423 -909.902 c 0
 96.1707 -907.195 94.735 -903.994 94.7354 -900.299 c 0xe0
 94.7354 -897.795 95.4903 -895.362 97 -893 c 0
 112.333 -869.667 120 -839.667 120 -803 c 0
 120 -764.334 104.833 -723.5 74.5 -680.5 c 0
 44.1667 -637.5 15 -611.333 -13 -602 c 1
 -13 0 l 1
 0 0 l 1
 0 -6 3.5 -17.5 10.5 -34.5 c 0
 17.5 -51.5 26 -65.6667 36 -77 c 0xd0
0 -452.677 m 1
 0 -463 l 2
 0 -469 3.5 -480.5 10.5 -497.5 c 0
 17.5 -514.5 26 -528.667 36 -540 c 0
 73.4463 -581.478 101.629 -624.19 120.547 -668.134 c 1
 120.849 -663.889 121 -657.511 121 -649 c 0
 121 -613.335 107.805 -575.436 81.4139 -535.305 c 0
 55.0231 -495.174 27.8852 -467.632 0 -452.677 c 1
0 -298.677 m 1
 0 -308 l 2
 0 -314 3.5 -325.5 10.5 -342.5 c 0
 17.5 -359.5 26 -373.667 36 -385 c 0
 73.4867 -426.523 101.688 -469.28 120.605 -513.271 c 1
 120.868 -509.271 121 -503.18 121 -495 c 0
 121 -459.335 107.805 -421.437 81.4139 -381.305 c 0
 55.0231 -341.174 27.8851 -313.632 0 -298.677 c 1
120.605 -359.271 m 1
 120.868 -355.271 121 -349.18 121 -341 c 0
 121 -305.335 107.805 -267.437 81.4139 -227.305 c 0
 55.0231 -187.174 27.8851 -159.632 0 -144.677 c 1
 0 -154 l 2
 0 -160 3.5 -171.5 10.5 -188.5 c 0
 17.5 -205.5 26 -219.667 36 -231 c 0
 73.4867 -272.523 101.688 -315.28 120.605 -359.271 c 1
EndSplineSet
EndChar

StartChar: flag128narrow
Encoding: 31 -1 26
Width: 247
Flags: W
HStem: -20 20G<-13 0>
VStem: -13 13<-641.133 -617 -486.133 -452.677 -332.133 -298.677 -178.133 -144.677 -24.1333 0> 94.7354 47.2646<-1061.1 -996.918> 120 29<-1030.94 -889.664 -821.615 -726.838 -666.147 -579.897 -512.147 -425.898 -358.147 -271.812>
LayerCount: 2
Fore
SplineSet
36 -77 m 4xd0
 111.333 -160.333 149 -248 149 -340 c 0
 149 -371.008 145.787 -395.966 139.361 -414.874 c 1
 145.787 -440.964 149 -467.339 149 -494 c 0
 149 -525.008 145.787 -549.966 139.361 -568.874 c 1
 145.787 -594.962 149 -621.338 149 -648 c 0
 149 -679.008 145.787 -703.966 139.361 -722.874 c 1
 145.787 -748.962 149 -775.338 149 -802 c 0
 149 -833.231 145.739 -858.329 139.218 -877.294 c 1
 145.739 -903.575 149 -930.144 149 -957 c 0xd0
 149 -970.334 146.667 -988 142 -1010 c 0
 137.333 -1032 129.667 -1049.67 119 -1063 c 0
 116.192 -1066.29 112.817 -1067.95 108.875 -1067.98 c 0
 105.191 -1067.98 101.913 -1066.62 99.0422 -1063.9 c 0
 96.171 -1061.2 94.7354 -1058 94.7354 -1054.3 c 0xe0
 94.7354 -1051.78 95.4903 -1049.34 97 -1047 c 0
 112.333 -1023.67 120 -993.667 120 -957 c 0
 120 -918.334 104.833 -877.501 74.5 -834.5 c 0
 44.1667 -791.5 15 -765.333 -13 -756 c 1
 -13 0 l 1
 -0 0 l 1
 0 -6 3.5 -17.5 10.5 -34.5 c 0
 17.5 -51.5 26 -65.6667 36 -77 c 4xd0
-0 -617 m 1
 0 -623 3.5 -634.5 10.5 -651.5 c 0
 17.5 -668.5 26 -682.666 36 -694 c 0
 73.4463 -735.478 101.629 -778.19 120.547 -822.134 c 1
 120.849 -817.889 121 -811.511 121 -803 c 0
 121 -777.002 116.333 -752.669 107 -730 c 0
 97.6667 -707.336 85.6667 -688.502 71 -673.5 c 0
 56.3333 -658.5 43.5 -646.833 32.5 -638.5 c 0
 21.5 -630.167 10.6667 -623 -0 -617 c 1
-0 -452.677 m 1
 -0 -462 l 2
 0 -468 3.5 -479.5 10.5 -496.5 c 0
 17.5 -513.5 26 -527.667 36 -539 c 0
 73.4867 -580.523 101.688 -623.28 120.605 -667.271 c 1
 120.868 -663.271 121 -657.18 121 -649 c 0
 121 -613.335 107.805 -575.436 81.4139 -535.305 c 0
 55.0231 -495.174 27.8852 -467.632 -0 -452.677 c 1
-0 -298.677 m 1
 -0 -308 l 2
 0 -314 3.5 -325.5 10.5 -342.5 c 0
 17.5 -359.5 26 -373.667 36 -385 c 0
 73.4867 -426.523 101.688 -469.28 120.605 -513.271 c 1
 120.868 -509.271 121 -503.18 121 -495 c 0
 121 -459.335 107.805 -421.437 81.4139 -381.305 c 0
 55.0231 -341.174 27.8851 -313.632 -0 -298.677 c 1
120.605 -359.271 m 1
 120.868 -355.271 121 -349.18 121 -341 c 0
 121 -305.335 107.805 -267.437 81.4139 -227.305 c 0
 55.0231 -187.174 27.8851 -159.632 0 -144.677 c 1
 -0 -154 l 2
 0 -160 3.5 -171.5 10.5 -188.5 c 0
 17.5 -205.5 26 -219.667 36 -231 c 0
 73.4867 -272.523 101.688 -315.28 120.605 -359.271 c 1
EndSplineSet
EndChar

StartChar: commontime
Encoding: 32 -1 27
Width: 449
VWidth: 600
Flags: HW
HStem: -216 36<266.885 357.799> 189 27<269.562 355.945>
VStem: 121.84 114.14<-88.786 91.195> 326.08 126.04<60.051 150.708> 407.04 40.48<-129.942 -37.705>
LayerCount: 2
Fore
SplineSet
121.83984375 0 m 0xe8
 121.83984375 95 198.98046875 216 302.16015625 216 c 0
 337.596679688 216 371.44921875 204.673828125 403.717773438 182.03125 c 0
 435.986328125 159.3828125 452.120117188 132.373046875 452.120117188 101 c 0
 452.120117188 72.634765625 418.018554688 42 388.639648438 42 c 0
 357.043945312 42 326.080078125 63.1796875 326.080078125 94 c 0xf0
 326.080078125 129.517578125 337.48046875 153.400390625 373.48046875 162.900390625 c 1
 363.98046875 172.400390625 338.938476562 189 314.200195312 189 c 0
 246.98046875 189 235.98046875 140.399414062 235.98046875 3.400390625 c 0
 235.98046875 -129.600585938 253.799804688 -180 306.98046875 -180 c 0
 330.901367188 -180 346.33984375 -172.63671875 362.934570312 -157.91015625 c 0
 379.53125 -143.182617188 390.943359375 -126.91015625 397.171875 -109.08984375 c 0
 403.401367188 -91.26953125 406.690429688 -73.240234375 407.040039062 -55 c 0
 407.223632812 -45.40625 410.685546875 -39.123046875 417.426757812 -36.150390625 c 0
 424.16796875 -33.1767578125 430.868164062 -33.6337890625 437.529296875 -37.5224609375 c 0
 444.190429688 -41.4091796875 447.51953125 -46.90234375 447.51953125 -54 c 0
 447.51953125 -70.1806640625 445.094726562 -87.0341796875 440.244140625 -104.560546875 c 0
 435.390625 -122.086914062 428.0078125 -139.490234375 418.096679688 -156.766601562 c 0
 408.182617188 -174.044921875 393.935546875 -188.237304688 375.35546875 -199.341796875 c 0
 356.774414062 -210.447265625 335.442382812 -216 311.360351562 -216 c 0
 205.98046875 -216 121.83984375 -95 121.83984375 0 c 0xe8
EndSplineSet
EndChar

StartChar: allebreve
Encoding: 33 -1 28
Width: 449
VWidth: 600
Flags: HMW
HStem: -216 36<262.862 357.244> 189 27<270.1 354.11>
VStem: 121.84 88.32<-104.11 112.301> 326.08 126.04<59.664 146.05> 407.04 40.48<-129.942 -37.705>
LayerCount: 2
Fore
SplineSet
286.98046875 272.400390625 m 4xe0
 293.516601562 272.400390625 298.98046875 265.5703125 298.98046875 257.400390625 c 4
 298.98046875 -258.599609375 l 4
 298.98046875 -266.771484375 293.516601562 -273.599609375 286.98046875 -273.599609375 c 4
 280.443359375 -273.599609375 274.98046875 -266.771484375 274.98046875 -258.599609375 c 4
 274.98046875 257.400390625 l 4
 274.98046875 265.5703125 280.444335938 272.400390625 286.98046875 272.400390625 c 4xe0
121.83984375 0 m 0
 121.83984375 95 198.98046875 216 302.16015625 216 c 0
 337.596679688 216 371.44921875 204.673828125 403.717773438 182.03125 c 0
 435.986328125 159.3828125 452.120117188 132.373046875 452.120117188 101 c 0
 452.120117188 72.634765625 418.018554688 42 388.639648438 42 c 0
 357.043945312 42 326.080078125 63.1796875 326.080078125 94 c 0xf0
 326.080078125 129.517578125 337.48046875 153.400390625 373.48046875 162.900390625 c 1
 363.98046875 172.400390625 338.938476562 189 314.200195312 189 c 0
 246.98046875 189 235.98046875 140.399414062 235.98046875 3.400390625 c 0
 235.98046875 -129.600585938 253.799804688 -180 306.98046875 -180 c 0
 330.901367188 -180 346.33984375 -172.63671875 362.934570312 -157.91015625 c 0
 379.53125 -143.182617188 390.943359375 -126.91015625 397.171875 -109.08984375 c 0
 403.401367188 -91.26953125 406.690429688 -73.240234375 407.040039062 -55 c 0xe8
 407.223632812 -45.40625 410.685546875 -39.123046875 417.426757812 -36.150390625 c 0
 424.16796875 -33.1767578125 430.868164062 -33.6337890625 437.529296875 -37.5224609375 c 0
 444.190429688 -41.4091796875 447.51953125 -46.90234375 447.51953125 -54 c 0
 447.51953125 -70.1806640625 445.094726562 -87.0341796875 440.244140625 -104.560546875 c 0
 435.390625 -122.086914062 428.0078125 -139.490234375 418.096679688 -156.766601562 c 0
 408.182617188 -174.044921875 393.935546875 -188.237304688 375.35546875 -199.341796875 c 0
 356.774414062 -210.447265625 335.442382812 -216 311.360351562 -216 c 0
 205.98046875 -216 121.83984375 -95 121.83984375 0 c 0
EndSplineSet
EndChar

StartChar: zero
Encoding: 34 -1 29
Width: 308
Flags: HMW
LayerCount: 2
Fore
SplineSet
154 375 m 3
 109 375 104 335 104 200 c 3
 104 65 110 25 155 25 c 0
 200 25 204 65 204 200 c 3
 204 335 199 375 154 375 c 3
155 400 m 4
 255 400 308 280 308 200 c 3
 308 120 255 0 155 0 c 0
 55 0 0 120 0 200 c 3
 0 280 55 400 155 400 c 4
EndSplineSet
EndChar

StartChar: rest4
Encoding: 8 -1 30
Width: 1000
Flags: W
VStem: 27.749 83<-24.9735 42.3895> 61 94<189.189 265>
LayerCount: 2
Fore
SplineSet
90.30859375 490.578125 m 0x40
 90.30859375 493.911132812 91.642578125 496.819335938 94.3115234375 499.302734375 c 0
 96.98046875 501.788085938 99.7509765625 503.03515625 102.623046875 503.045898438 c 0
 108.076171875 503.067382812 114.743164062 498.481445312 122.625 489.288085938 c 1
 229.612 345.5 l 2
 235.5078125 337.576171875 238.457 328.566 238.5 318.5 c 0
 238.539 309.363 233.935 301.638 224.687 295.325 c 0
 178.229 263.613 155 230.172 155 195 c 0x40
 155 183.378 158.899 169.406 166.696 153.084 c 0
 174.493 136.763 182.462 122.649 190.603 110.744 c 0
 198.743 98.8388 211.459 81.1165 228.749 57.5771 c 0
 232.288 52.7633 234.038 48.5709 234 45 c 0
 233.943 39.6934 230.502 36.9372 223.678 36.7314 c 0
 222.669 36.701 216.983 39.7434 206.622 45.8587 c 0
 196.261 51.9741 185.636 55.0469 174.749 55.0771 c 0
 157.444 55.1252 142.452 50.7705 129.771 42.013 c 0
 117.09 33.2555 110.749 21.2769 110.749 6.07715 c 0
 110.749 -18.7805 127.761 -42.2574 161.786 -64.3535 c 0
 166.737 -67.5709 169.241 -71.9306 169.299 -77.4326 c 0
 169.321 -79.5581 168.436 -81.6712 166.641 -83.7719 c 0
 164.847 -85.8726 162.717 -86.9229 160.249 -86.9229 c 0
 156.899 -86.9229 153.622 -86.4229 150.417 -85.4229 c 0
 137.676 -81.4479 125.234 -76.562 113.09 -70.7652 c 0
 100.947 -64.9685 87.9297 -57.2997 74.0385 -47.7588 c 0
 60.1473 -38.2179 48.9595 -26.2942 40.4753 -11.9875 c 0
 31.9911 2.31924 27.749 17.8408 27.749 34.5771 c 0x80
 27.749 57.819 37.1682 78.6295 56.0066 97.0085 c 0
 74.845 115.387 95.6465 124.577 118.411 124.577 c 0
 140.997 124.577 156.016 121.283 163.466 114.696 c 1
 70.749 233.577 l 2
 64.2497 241.911 61 250.718 61 260 c 0
 61 270 68 280.333 82 291 c 0
 123.611 322.208 144.417 351.042 144.417 377.5 c 0
 144.417 391.91 140.789 406.308 133.534 420.693 c 0
 126.278 435.078 122.5625 441.724609375 96.603515625 476.48046875 c 0
 92.4072265625 482.1015625 90.30859375 486.801757812 90.30859375 490.578125 c 0x40
EndSplineSet
EndChar

StartChar: flag8up
Encoding: 17 -1 31
Width: 201
Flags: W
HStem: -19.999 20G<-13.5713 0>
VStem: -13.5713 13.5713<-32.334 0> 174.889 24.959<-506.08 -345.061>
LayerCount: 2
Fore
SplineSet
37.4287 -98.999 m 0
 91.1680564891 -172.495316537 159.650390625 -237.682617188 187.34765625 -335.5 c 0
 194.01953125 -359.06640625 199.84765625 -396.6640625 199.84765625 -422 c 0
 199.84765625 -482.743164062 179.89453125 -550.538085938 147.002929688 -590.961914062 c 0
 144.313476562 -594.2578125 140.012695312 -596.920898438 136.100585938 -596.920898438 c 3
 129.375976562 -596.920898438 123.748046875 -589.666992188 123.748046875 -583.0078125 c 3
 123.748046875 -580.165039062 125.708007812 -576.56640625 127.627929688 -574.211914062 c 0
 153.336914062 -542.73828125 174.888671875 -486.000976562 174.888671875 -429.243164062 c 3
 174.888671875 -316.973632812 113.347351074 -207 -13.5712890625 -160 c 1
 -13.5713 0.000976562 l 1
 0 0 l 1
 -0.0494072 -8.14267 3.51632 -23.0401 10.6972 -44.6922 c 0
 17.8781 -66.3444 26.7886 -84.4466 37.4287 -98.999 c 0
EndSplineSet
EndChar

StartChar: flag128up
Encoding: 21 -1 32
Width: 247
Flags: HW
HStem: -20 20G<-13 0>
VStem: -13 13<-179.133 -144.256 -24.1333 0> 168 29<-560.184 -441.86 -386.913 -284.776>
LayerCount: 2
Fore
SplineSet
165.793945312 -537.153320312 m 1
 167.93359375 -524.153320312 169 -510.102539062 169 -495 c 0
 169 -457 148.181640625 -417.840820312 109.5 -378 c 0
 70.8173828125 -338.159179688 32 -307 0 -299.255859375 c 1
 0 -310 l 2
 0 -331.5390625 23.9013671875 -373.2890625 36 -387 c 0
 74.9716796875 -431.538085938 131.14453125 -477.243164062 165.793945312 -537.153320312 c 1
154.852539062 -1126.12597656 m 0
 152.303710938 -1129.53222656 147.862304688 -1132.08496094 143.950195312 -1132.08496094 c 0
 137.225585938 -1132.08496094 131.59765625 -1124.83105469 131.59765625 -1118.171875 c 0
 131.59765625 -1115.32910156 133.642578125 -1111.796875 135.477539062 -1109.37597656 c 0
 158.5 -1079 173.5 -1044 173.5 -988 c 0
 173.5 -947 145.833007812 -882.5 101.5 -839.5 c 0
 57.1669921875 -796.5 19 -769.666992188 -13 -759 c 1
 -13 -506 -13 -253 -13 0 c 1
 0 0 l 1
 0 -21.5390103505 23.90178504 -63.2887300394 36 -77 c 0
 96.0673299054 -145.647457643 197 -217.065859379 197 -339 c 0
 197 -371.468656542 192.802370312 -399.0913881 184.407368951 -421.869063784 c 1
 192.33241065 -443.893135767 197.000000002 -467.778507656 197 -494 c 0
 197 -526.46875 192.802734375 -554.091796875 184.407226562 -576.869140625 c 1
 192.33203125 -598.893554688 197 -622.778320312 197 -649 c 0
 197 -681.46875 192.802734375 -709.091796875 184.407226562 -731.869140625 c 1
 192.33203125 -753.893554688 197 -777.778320312 197 -804 c 0
 197 -838.0234375 192.390625 -866.724609375 183.172851562 -890.107421875 c 1
 192.390625 -913.556640625 198.5 -957 198.5 -984 c 0
 198.5 -1051 184.5 -1086.5 154.852539062 -1126.12597656 c 0
0 -609.255859375 m 1
 0 -620 l 2
 0 -668 21.9013671875 -696.2890625 34 -710 c 0
 78.109375 -758.86328125 130.908007812 -794.233398438 164.825 -852.592773438 c 1
 167.611132812 -838.09765625 169 -822.233398438 169 -805 c 0
 169 -767 148.181640625 -727.840820312 109.5 -688 c 0
 70.8173828125 -648.159179688 32 -617 0 -609.255859375 c 1
165.793945312 -692.153320312 m 1
 167.93359375 -679.153320312 169 -665.102539062 169 -650 c 0
 169 -612 148.181640625 -572.840820312 109.5 -533 c 0
 70.8173828125 -493.159179688 32 -462 0 -454.255859375 c 1
 0 -465 l 2
 0 -486.5390625 23.9013671875 -528.2890625 36 -542 c 0
 74.9716796875 -586.538085938 131.14453125 -632.243164062 165.793945312 -692.153320312 c 1
165.794413929 -382.153185434 m 1
 167.933266004 -369.153627235 168.999999945 -355.102116829 169 -340 c 0
 169 -302 148.181640625 -262.840820312 109.5 -223 c 0
 70.8173828125 -183.159179688 32 -152 0 -144.256 c 1
 0 -155 l 2
 0 -176.5390625 23.9013671875 -218.2890625 36 -232 c 0
 74.9715704527 -276.538304069 131.144881284 -322.242820857 165.794413929 -382.153185434 c 1
EndSplineSet
EndChar

StartChar: flag8down
Encoding: 22 -1 33
Width: 247
Flags: HW
HStem: -0.001 20G<-13.5713 0>
VStem: -13.5713 13.5713<0 32.334> 174.889 24.959<345.061 506.08>
LayerCount: 2
Fore
SplineSet
37.4287109375 98.9990234375 m 0
 91.16796875 172.495117188 159.650390625 237.682617188 187.34765625 335.5 c 0
 194.01953125 359.06640625 199.84765625 396.6640625 199.84765625 422 c 0
 199.84765625 482.743164062 179.89453125 550.538085938 147.002929688 590.961914062 c 0
 144.313476562 594.2578125 140.012695312 596.920898438 136.100585938 596.920898438 c 3
 129.375976562 596.920898438 123.748046875 589.666992188 123.748046875 583.0078125 c 3
 123.748046875 580.165039062 125.708007812 576.56640625 127.627929688 574.211914062 c 0
 153.336914062 542.73828125 174.888671875 486.000976562 174.888671875 429.243164062 c 3
 174.888671875 316.973632812 113.34765625 207 -13.5712890625 160 c 1
 -13.5712890625 -0.0009765625 l 1
 0 0 l 1
 -0.0498046875 8.142578125 3.5166015625 23.0400390625 10.697265625 44.6923828125 c 0
 17.8779296875 66.3447265625 26.7890625 84.4462890625 37.4287109375 98.9990234375 c 0
EndSplineSet
EndChar

StartChar: flag16down
Encoding: 23 -1 34
Width: 247
Flags: HW
HStem: 0 20G<-13 0>
VStem: -13 13<144.256 179.133 0 24.1333> 168 29<441.86 560.184 284.776 386.913>
LayerCount: 2
Fore
SplineSet
154.852539062 661.125976562 m 4
 152.303710938 664.532226562 147.862304688 667.084960938 143.950195312 667.084960938 c 7
 137.225585938 667.084960938 131.59765625 659.831054688 131.59765625 653.171875 c 7
 131.59765625 650.329101562 133.642578125 646.796875 135.477539062 644.375976562 c 4
 158.5 614 173.5 579 173.5 523 c 4
 173.5 482 145.833007812 417.5 101.5 374.5 c 4
 57.1669921875 331.5 19 304.666992188 -13 294 c 5
 -13 0 l 5
 0 0 l 5
 0 21.5390625 23.9013671875 63.2890625 36 77 c 4
 96.0673828125 145.647460938 197 217.065429688 197 339 c 4
 197 373.0234375 192.390625 401.724609375 183.172851562 425.107421875 c 5
 192.390625 448.556640625 198.5 492 198.5 519 c 4
 198.5 586 184.5 621.5 154.852539062 661.125976562 c 4
0 144.255859375 m 5
 0 155 l 6
 -0 203 21.9013671875 231.2890625 34 245 c 4
 78.109375 293.86328125 130.908203125 329.233398438 164.825195312 387.592773438 c 5
 167.611328125 373.09765625 169 357.233398438 169 340 c 4
 169 302 148.181640625 262.840820312 109.5 223 c 4
 70.8173828125 183.159179688 32 152 0 144.255859375 c 5
EndSplineSet
EndChar

StartChar: one
Encoding: 35 -1 35
Width: 268
VWidth: 0
Flags: HW
HStem: 0 41.6328<32.9272 102.946 197.052 267.073>
VStem: 103 94<44.2952 323.6>
LayerCount: 2
Fore
SplineSet
242.5 0 m 26
 45.5 0 l 26
 33.5986328125 0 20.5 5.8330078125 20.5 17.5 c 0
 20.5 35.0732421875 44.724609375 37.640625 58.890625 41.6328125 c 0
 72.333984375 45.4228515625 91 46.7099609375 91 64 c 0
 91 110.099609375 91 258.809570312 91 323.599609375 c 1
 65.1669921875 281.266601562 40.8333333333 234.666666667 17.869140625 193.95703125 c 0
 16.0729177272 190.77278784 11.3408 188.958 8.29199 188.958 c 0
 5 188.958 0.5 192.304347826 0.5 197 c 0
 0.5 202.782608696 2.36328125 205.6328125 6 215 c 0
 26.2509765625 267.166015625 52.416015625 322 78 378.5 c 0
 82.2939453125 387.982421875 86.107421875 394 98.5830078125 394 c 2
 175 394 l 6
 181.666992188 394 187 391 191 385 c 0
 195 379 197 372.333 197 365 c 2
 197 64 l 0
 196.98 46.7051 215.666 45.4229 229.109 41.6328 c 0
 243.275 37.6396 267.5 35.0732 267.5 17.5 c 0
 267.5 5.83301 254.401367188 0 242.5 0 c 26
EndSplineSet
EndChar

StartChar: two
Encoding: 36 -1 36
Width: 285
VWidth: 0
Flags: W
HStem: 0 83.5<162.566 228.209> 366.652 26.848<77.0046 159.122>
VStem: -21.5 9<12.5397 33.252> 0.5 104.458<248.265 336.904> 180 96.459<217.814 334.384>
LayerCount: 2
Fore
SplineSet
-17.5 12.5 m 3
 -20.167 12.5 -21.5 14.667 -21.5 19 c 0
 -21.5 53.5488 -10.3525 82.6484 11.9424 106.299 c 0
 34.2383 129.949 62.5898 152.85 103 175 c 0
 133.786 191.875 148.689 207.304 159.463 218.999 c 0
 175.125 236 180 254.817 180 290.5 c 3
 180 329.343 174.792 339.668 164.793 349.667 c 0
 157.792 356.668 141.125 366.652 122.622 366.652 c 0
 100.458 366.652 80.9585 358.9 62.625 343.483 c 1
 92.959 344.15 104.958 309.15 104.958 287.482 c 0
 104.958 257.29 77.292 237.816 50.292 237.816 c 0
 24.2148 237.816 0.5 263.65 0.5 286.5 c 0
 0.5 314.65 12.7314 341.998 38.9619 362.658 c 0
 60.958 379.983 92.6162 393.5 131 393.5 c 4
 202.847 393.5 276.459 342.873 276.459 271.65 c 0
 276.459 247.65 264.354 225.36 249.062 210.08 c 0
 216.704 177.743 178.524 174.572 131.022 156.094 c 0
 111.5 148.5 103.5 145.5 90.168 136.34 c 1
 117.743 137.013 147.736 116.77 163.25 104.5 c 0
 176.125 94.3164 198.834 83.5 217.959 83.5 c 0
 240.958 83.5 261.126 103.103 271.167 123 c 0
 273.103 126.836 276.018 128.5 279 128.5 c 0
 283.278 128.5 285.417 126.25 285.417 121.75 c 0
 285.417 119.593 284.835 117.729 283.792 115.5 c 0
 276.458 99.833 260.292 64.833 247.098 44.0303 c 0
 226.256 11.1689 197.352 0 174.5 0 c 0
 151.796 0 126.921 7.83301 103.625 32.5 c 0
 93.1035 43.6416 64.3408 63.5 43.875 63.5 c 0
 31.8545 63.5 19.9355 59.9463 8.10059 52.8682 c 0
 -0.875 47.5 -8.67969 37.4902 -12.5 19 c 0
 -13.3955 14.667 -15.0615 12.5 -17.5 12.5 c 3
EndSplineSet
EndChar

StartChar: three
Encoding: 37 -1 37
Width: 266
VWidth: 0
Flags: W
HStem: -0.5 24.5996<67.4772 148.854> 186.5 27<53.0073 143.885> 375.9 24.6<67.4772 148.854>
VStem: 0 100.5<53.2493 134.979 265.021 346.751> 171 92<41.1222 163.4 237.023 358.845>
LayerCount: 2
Back
Fore
SplineSet
168 200 m 1
 210.347 192.533 263 166.6 263 104 c 3
 263 32.5928 204.026 -0.5 127 -0.5 c 3
 66.5186 -0.5 0 32.998 0 88.5 c 3
 0 114.577 19.9102 146 49.5 146 c 27
 77.6289 146 100.5 125.1 100.5 95 c 3
 100.5 70.5996 85 44.0996 53.5 46.0996 c 1
 72 28.0996 100.923 24.0996 115.5 24.0996 c 3
 153.03 24.0996 171 54.4 171 104.6 c 3
 171 169.4 138.5 186.5 86 186.5 c 3
 62.9131 186.5 53 189.988 53 200 c 3
 53 210.012 62.9131 213.5 86 213.5 c 3
 138.5 213.5 171 222.4 171 295.4 c 3
 171 345.4 153.03 375.9 115.5 375.9 c 3
 100.923 375.9 72 371.9 53.5 353.9 c 1
 85 355.9 100.5 329.4 100.5 305 c 3
 100.5 274.9 77.6289 254 49.5 254 c 27
 19.9102 254 0 285.423 0 311.5 c 3
 0 367.002 66.5186 400.5 127 400.5 c 3
 204.026 400.5 263 367.407 263 296 c 3
 263 233.4 210.347 207.467 168 200 c 1
EndSplineSet
EndChar

StartChar: four
Encoding: 38 -1 38
Width: 326
VWidth: 0
Flags: W
HStem: 0 36.6328<72.7755 142.528 233.468 303.224> 107.5 30<26.5 143 233.052 327.826>
VStem: 143 90.052<39.2952 107.5 137.926 224.146>
LayerCount: 2
Fore
SplineSet
143 219 m 1
 178 245.5 211 287.5 233 329 c 1
 233 250.884 233.064 202.568 233.052 137.926 c 1
 256.88 137.971 280.229 138 308.5 138 c 0
 318.164 138 327.833 132.164 327.833 122.5 c 0
 327.833 113.412 319.088 107.5 310 107.5 c 2
 233.041 107.5 l 1
 233.033 92.2832 233.019 76.2461 233 59 c 0
 232.98 41.7051 251.666 40.4229 265.109 36.6328 c 0
 279.275 32.6396 303.5 33.0732 303.5 15.5 c 0
 303.5 3.83301 289.972 0 278.5 0 c 2
 97.5 0 l 2
 86.0283 0 72.5 3.83301 72.5 15.5 c 0
 72.5 33.0732 96.7246 32.6406 110.891 36.6328 c 0
 124.334 40.4229 143 41.71 143 59 c 2
 143 107.5 l 1
 3 107.5 l 2
 -5.68848 107.5 -13 114.036 -13 123 c 0
 -13 132.167 -7.9502 139.069 -0.5 149.5 c 0
 54.5 226.5 70.5 265.5 98.5 396 c 5
 118 384 146.5 370.5 165.5 370.5 c 0
 205.25 370.5 230.916 385 256 396 c 1
 180.5 331.5 68.5 203.5 26.5 137.5 c 1
 75.5996 137.5 103.915 137.59 143 137.694 c 1
 143 219 l 1
EndSplineSet
EndChar

StartChar: five
Encoding: 39 -1 39
Width: 272
VWidth: 0
Flags: W
HStem: 0 22.334<76.6915 146.649> 51.6689 100.998<48.291 99.7637> 229.117 27.8828<84.3614 155.034> 297.833 98<62.4237 171.701>
VStem: 2 107.292<57.3782 138.429> 37.5 24.001<240.001 297.833> 174.75 97.5<63.2684 205.406>
LayerCount: 2
Fore
SplineSet
2 94.5 m 3xfa
 2 123.667 29.3467 152.667 59.626 152.667 c 3
 88.3799 152.667 109.291992188 127.75390625 109.292 99.3311 c 19xfa
 109.292 53.499 66.625 44.3333 48.291 51.6689 c 1
 63.1249 37.6666 93.9583 22.334 116.5 22.334 c 3
 153.125 22.334 174.75 53 174.75 133.5 c 3
 174.75 193.917 158.625 229.1171875 129.625 229.1171875 c 3
 96.625 229.1171875 64.625 203.116699219 37.5 182.5 c 9
 37.5 408.833 l 17
 70.458 400.833 104 395.833007812 144.25 395.833007812 c 3
 177.5 395.833007812 216.5 402.167 247.25 408.833 c 1
 234 346.667 171.25 297.833007812 61.5 297.833007812 c 1
 61.482421875 284 61.5009765625 253.66796875 61.5009765625 240.000976562 c 1xf6
 86.625 254.116699219 122.786132812 257 130.75 257 c 3
 217.629882812 257 272.25 207.4921875 272.25 134.5 c 27
 272.25 57.58203125 204.918 0 128 0 c 3
 67.4932 0 2 30.751 2 94.5 c 3xfa
EndSplineSet
EndChar

StartChar: six
Encoding: 40 -1 40
Width: 267
VWidth: 0
Flags: HWO
HStem: 0 24.7236<111.534 167.203> 186.557 21.427<126.334 207.459> 376.39 19.084<136.144 207.12>
VStem: -2.03906 97.6299<88.5041 173.173 176.583 290.086> 153.841 110.714<260.486 354.427> 177.352 99.0784<48.4238 165.365>
LayerCount: 2
UndoRedoHistory
Layer: 1
Undoes
EndUndoes
Redoes
EndRedoes
EndUndoRedoHistory
Fore
SplineSet
0.25 200 m 1xf4
 2.2890625 341.59375 84 395.599609375 146.25 395.599609375 c 1
 261.6953125 395.599609375 272.5546875 333.349609375 272.5546875 301.850585938 c 0
 272.5546875 273.920898438 248.922851562 247.696289062 214.090820312 247.696289062 c 0
 189.073242188 247.696289062 161.840820312 271.015625 161.840820312 305.696289062 c 0xf8
 161.840820312 340.323242188 188.25 364 206.25 364 c 1
 197.62890625 369.67578125 181.599609375 372 169.25 372 c 3
 134.25 372 105.380859375 354.2421875 97.873046875 330.40625 c 0
 90.5 306.999023438 94 214.999023438 94 194 c 1
 108.26953125 208.26953125 149.24609375 219.583984375 184.379882812 219.583984375 c 0
 270 219.583984375 281.25 153.999023438 281.25 109 c 0
 281.25 58.75 259.6953125 -0.400390625 144.6953125 -0.400390625 c 0
 71.6953125 -0.400390625 0.25 59.9990234375 0.25 200 c 1xf4
145.71484375 25 m 0
 163.25 25 195.25 38 195.25 102 c 0xf4
 195.25 172 171.134765625 192 153.25 192 c 0
 124.986328125 192 94.25 179 94.25 113 c 3
 94.25 42 130.467773438 25 145.71484375 25 c 0
EndSplineSet
EndChar

StartChar: nine
Encoding: 43 -1 41
Width: 267
VWidth: 0
Flags: HW
HStem: 370.476 24.7236<114.297 169.966> 187.215 21.427<74.041 155.166> -0.274781 19.084<74.38 145.356>
VStem: 185.909 97.6299<222.026 306.695 105.113 218.616> 16.945 110.714<40.7722 134.713> 5.0696 99.0784<229.834 346.775>
LayerCount: 2
UndoRedoHistory
Layer: 1
Undoes
EndUndoes
Redoes
EndRedoes
EndUndoRedoHistory
Fore
SplineSet
281.25 195.19921875 m 1xf4
 279.2109375 53.60546875 197.5 -0.400390625 135.25 -0.400390625 c 1
 19.8046875 -0.400390625 8.9453125 61.849609375 8.9453125 93.3486328125 c 0
 8.9453125 121.278320312 32.5771484375 147.502929688 67.4091796875 147.502929688 c 0
 92.4267578125 147.502929688 119.659179688 124.18359375 119.659179688 89.5029296875 c 0xf8
 119.659179688 54.8759765625 93.25 31.19921875 75.25 31.19921875 c 1
 83.87109375 25.5234375 99.900390625 23.19921875 112.25 23.19921875 c 3
 147.25 23.19921875 176.119140625 40.95703125 183.626953125 64.79296875 c 0
 191 88.2001953125 187.5 180.200195312 187.5 201.19921875 c 1
 173.23046875 186.9296875 132.25390625 175.615234375 97.1201171875 175.615234375 c 0
 11.5 175.615234375 0.25 241.200195312 0.25 286.19921875 c 0
 0.25 336.44921875 21.8046875 395.599609375 136.8046875 395.599609375 c 0
 209.8046875 395.599609375 281.25 335.200195312 281.25 195.19921875 c 1xf4
135.78515625 370.19921875 m 0
 118.25 370.19921875 86.25 357.19921875 86.25 293.19921875 c 0xf4
 86.25 223.19921875 110.365234375 203.19921875 128.25 203.19921875 c 0
 156.513671875 203.19921875 187.25 216.19921875 187.25 282.19921875 c 3
 187.25 353.19921875 151.032226562 370.19921875 135.78515625 370.19921875 c 0
EndSplineSet
EndChar

StartChar: seven
Encoding: 41 -1 42
Width: 309
VWidth: 0
Flags: HW
HStem: 0 21G<52.375 79.3335 169.375 180.834> 263.5 92<162.711 235.976> 306 89<44.6374 138.586> 306 68.292<33.3021 120.517>
VStem: 0 22.584<213.088 284.358>
LayerCount: 2
Fore
SplineSet
15.5 0 m 1xc8
 83.5 70.5 171 188 206 273.5 c 1
 194.5 267.5 189.5 263.5 167.666992188 263.5 c 3xc8
 134.499023438 263.5 110.659179688 306 78.1669921875 306 c 3xa8
 32.1396484375 306 25 279.583 22.584 222.583 c 0
 22.3486 217.02 16.1689453125 213 10 213 c 27
 4.3212890625 213 0 217.905273438 0 223.584 c 27
 0 286.893554688 0 322.606445312 0 385.916 c 27
 0 393.33984375 5.8251953125 399.583984375 13.249 399.584 c 19
 19.4893 399.584 22.8005 394.487 24.335 391.586 c 0
 31.5 378.042 48.207 374.292 54.75 374.292 c 3x98
 81.1611 374.292 86.5 395 122.167 395 c 3xa8
 154.507756173 395 174.992438813 355.5 208.166992188 355.5 c 3
 233.971679688 355.5 256.5 364.791595459 265.5 381.791992188 c 0
 272.205138878 394.457550082 289.5 389.416015625 284.5 375.291992188 c 0
 227.666992188 215.125 204.197158813 139.041599274 187.197265625 0 c 1
 173.947265625 11.0419921875 145.749023438 22.5 117 22.5 c 27
 76.4541015625 22.5 40.25 11 15.5 0 c 1xc8
EndSplineSet
EndChar

StartChar: eight
Encoding: 42 -1 43
Width: 264
VWidth: 0
Flags: W
HStem: -0.455078 29<66.0932 168.405> 371 29<96.0953 198.568>
VStem: 2 31.75<57.2515 131.534> 4 63.5<270.274 344.932> 197 63.5<54.6128 129.271> 230.75 31.75<268.01 342.919>
LayerCount: 2
UndoRedoHistory
Layer: 1
Undoes
EndUndoes
Redoes
EndRedoes
EndUndoRedoHistory
Fore
SplineSet
260.5 121.545 m 0xc8
 260.5 45.0039 190.76 -0.455078 120 -0.455078 c 0
 53.75 -0.455078 2 41.5449 2 94.5449 c 0xe8
 2 139.238 26.3516 159.488 58.9854 179 c 1
 22.6348 200.458 4 236.52 4 278 c 0
 4 354.541 73.7402 400 144.5 400 c 0
 210.75 400 262.5 358 262.5 305 c 0xd4
 262.5 260.307 238.148 240.057 205.515 220.545 c 1
 241.865 199.087 260.5 163.025 260.5 121.545 c 0xc8
99.4092 161.027 m 1
 59.1348 141.605 33.75 130.234 33.75 91.5449 c 0
 33.75 61.5449 69.75 28.5449 115.75 28.5449 c 0
 142.837 28.5449 197 41.7061 197 92.0449 c 0
 197 130.787 149.709 142.819 99.4092 161.027 c 1
165.091 238.518 m 1
 205.365 257.939 230.75 269.311 230.75 308 c 0
 230.75 338 195.5 371 148.75 371 c 0
 121.663 371 67.5 357.839 67.5 307.5 c 0xd4
 67.5 268.758 114.791 256.726 165.091 238.518 c 1
EndSplineSet
EndChar

StartChar: dot
Encoding: 45 -1 44
Width: 95
Flags: W
HStem: 55 90<6.64345 82.9106>
VStem: 0 90<62.0902 138.357>
LayerCount: 2
Fore
SplineSet
0 100 m 0
 0 124.853 20.7002 145 45 145 c 0
 69.8525 145 90 124.3 90 100 c 0
 90 75.7002 69.2998 55 45 55 c 0
 20.7002 55 0 75.1504 0 100 c 0
EndSplineSet
EndChar

StartChar: NameMe.47
Encoding: 47 -1 46
Width: 1005
Flags: W
HStem: -14 18<26.667 79.583> -13.25 26.5<-1089.25 748.998> 186 18<26.667 107.132> 195.5 18.5<145.478 226.607> 386.75 26.5<-1089.25 748.998> 395.5 18.5<173.917 226.607> 456 88<-346.592 -285.407> 586.75 26.5<-1089.25 748.998> 656 88<-346.592 -285.407> 786.75 26.5<-1089.25 748.998>
VStem: -803 54<659 724.02> -494 92<440.26 678.99> -360 88<469.407 530.593 669.408 730.593> 0 21.25<19.395 67.4089 219.012 267.459> 232.25 18.75<135.458 178.367 335.458 378.367>
LayerCount: 2
Fore
SplineSet
62.25 204 m 0x27fe
 79.5830078125 204 115.166992188 229.333007812 159.5 268 c 0
 203.833007812 306.666992188 232.25 339.5 232.25 355.5 c 0
 232.249023438 364.833007812 228.083007812 373.833007812 219.75 382.5 c 0
 211.416992188 391.166992188 201.916992188 395.5 191.25 395.5 c 0
 173.916992188 395.5 136.833007812 370.666992188 92.5 332 c 0
 48.1669921875 293.333007812 21.25 260 21.25 244 c 0
 21.25 234.666992188 25.25 225.666992188 33.25 217 c 0
 41.25 208.333007812 50.9169921875 204 62.25 204 c 0x27fe
79 186 m 0
 30.7607421875 186 0 212.009765625 0 258 c 0
 -0 361 63.3974609375 414 171 414 c 0
 224.333007812 414 251 389.666992188 251 341 c 0
 251 238.107421875 186.790039062 186 79 186 c 0
62.25 4 m 0x93fe
 79.5830078125 4 115.167 29.3333 159.5 68 c 0
 203.833 106.667 232.25 139.5 232.25 155.5 c 0
 232.249023438 164.833007812 228.083007812 173.833007812 219.75 182.5 c 0
 211.416992188 191.166992188 201.916992188 195.5 191.25 195.5 c 0
 173.916992188 195.5 136.833 170.667 92.5 132 c 0
 48.1667 93.3333 21.25 60 21.25 44 c 0
 21.25 34.6669921875 25.25 25.6669921875 33.25 17 c 0
 41.25 8.3330078125 50.9169921875 4 62.25 4 c 0x93fe
79 -14 m 0
 30.7602787808 -14 0 12.0098237263 0 58 c 0
 -1.02321464776e-06 161.00012113 63.3978076042 214 171 214 c 0
 224.333 214 251 189.667 251 141 c 0
 251 38.1075381241 186.789896491 -14 79 -14 c 0
-360 500 m 0
 -359.99609375 512 -355.663085938 522.333007812 -347 531 c 0
 -338.33203125 539.669921875 -327.999023438 544.00390625 -316 544 c 0
 -303.999023438 544 -293.666015625 539.666992188 -285 531 c 0
 -276.327148438 522.333007812 -271.994140625 512 -272 500 c 0
 -272 487.999023438 -276.333007812 477.666015625 -285 469 c 0
 -293.666992188 460.33203125 -304 455.999023438 -316 456 c 0
 -328 456 -338.333007812 460.333007812 -347 469 c 0
 -355.666992188 477.666992188 -360 488 -360 500 c 0
-360 700 m 0
 -359.99609375 712.000976562 -355.663085938 722.333984375 -347 731 c 0
 -338.33203125 739.668945312 -327.999023438 744.001953125 -316 744 c 0
 -303.999023438 744 -293.666015625 739.666992188 -285 731 c 0
 -276.327148438 722.333007812 -271.994140625 712 -272 700 c 0
 -272 688 -276.333007812 677.666992188 -285 669 c 0
 -293.666992188 660.333007812 -304 656 -316 656 c 0
 -328 656.001953125 -338.333007812 660.334960938 -347 669 c 0
 -355.666992188 677.669921875 -360 688.002929688 -360 700 c 0
-749 659 m 1
 -735 669.672851562 -718.333007812 675.005859375 -699 675 c 0
 -681 675 -665 667.666992188 -651 653 c 0
 -637 638.333007812 -630 621.666992188 -630 603 c 0
 -630 582.333007812 -637.833007812 564.166992188 -653.5 548.5 c 0
 -669.166992188 532.833007812 -687.666992188 525 -709 525 c 0
 -734.333007812 525 -756.333007812 534.666992188 -775 554 c 0
 -793.666992188 573.333007812 -803 597.333007812 -803 626 c 0
 -803 679.333007812 -787.5 724.666992188 -756.5 762 c 0
 -725.5 799.333007812 -680.666992188 817.666992188 -622 817 c 0
 -552.666992188 816.333007812 -498.666992188 791.333007812 -460 742 c 0
 -421.333007812 692.666015625 -402 632 -402 560 c 0
 -402 508.666992188 -412 461.166992188 -432 417.5 c 0
 -452 373.833007812 -480.5 335.666015625 -517.5 303 c 0
 -554.5 270.333007812 -593.5 242.166992188 -634.5 218.5 c 0
 -675.5 194.833007812 -722 172.666992188 -774 152 c 0
 -781.302734375 149.079101562 -787.473632812 149.755859375 -792.51171875 154.032226562 c 0
 -797.55078125 158.307617188 -799.564453125 163.759765625 -798.552734375 170.38671875 c 0
 -797.541992188 177.014648438 -793.358398438 181.719726562 -786 184.5 c 0
 -693.446289062 219.47265625 -621.640625 270.291992188 -570.584960938 336.958007812 c 0
 -519.528320312 403.623046875 -494 484.63671875 -494 580 c 0
 -494 677.96875 -534.7890625 783 -632 783 c 0
 -667.333007812 783 -695.666992188 769 -717 741 c 0
 -738.333007812 713 -749 685.666992188 -749 659 c 1
-1080 386.75 m 2x0bfe
-1093.25 400 m 0
-1080 386.75 m 2
-1093.25 400 m 0
-1080 386.75 m 2
-1093.25 400 m 0
-1080 386.75 m 2
-1093.25 400 m 0
739.75 413.25 m 2
 743.49 413.25 746.609 411.956 749.12 409.367 c 0
 751.71 406.779 753 403.656 753 400 c 0
 753 396.344 751.71 393.221 749.12 390.633 c 0
 746.529 388.044 743.41 386.75 739.75 386.75 c 2
 -1080 386.75 l 2
 -1083.66 386.75 -1086.78 388.044 -1089.37 390.632 c 0
 -1091.96 393.22 -1093.25 396.343 -1093.25 400 c 0
 -1093.25 403.657 -1091.96 406.78 -1089.37 409.368 c 0
 -1086.78 411.956 -1083.66 413.25 -1080 413.25 c 2
 739.75 413.25 l 2
-1080 786.75 m 2
-1093.25 800 m 0
-1080 786.75 m 2
-1093.25 800 m 0
-1080 786.75 m 2
-1093.25 800 m 0
-1080 786.75 m 2
-1093.25 800 m 0
739.75 813.25 m 2
 743.49 813.25 746.609 811.956 749.12 809.367 c 0
 751.71 806.779 753 803.656 753 800 c 0
 753 796.344 751.71 793.221 749.12 790.633 c 0
 746.529 788.044 743.41 786.75 739.75 786.75 c 2
 -1080 786.75 l 2
 -1083.66 786.75 -1086.78 788.044 -1089.37 790.632 c 0
 -1091.96 793.22 -1093.25 796.343 -1093.25 800 c 0
 -1093.25 803.657 -1091.96 806.78 -1089.37 809.368 c 0
 -1086.78 811.956 -1083.66 813.25 -1080 813.25 c 2
 739.75 813.25 l 2
-1080 586.75 m 2
-1093.25 600 m 0
-1080 586.75 m 2
-1093.25 600 m 0
-1080 586.75 m 2
-1093.25 600 m 0
-1080 586.75 m 2
-1093.25 600 m 0
739.75 613.25 m 2
 743.49 613.25 746.609 611.956 749.12 609.367 c 0
 751.71 606.779 753 603.656 753 600 c 0
 753 596.344 751.71 593.221 749.12 590.633 c 0
 746.529 588.044 743.41 586.75 739.75 586.75 c 2
 -1080 586.75 l 2
 -1083.66 586.75 -1086.78 588.044 -1089.37 590.632 c 0
 -1091.96 593.22 -1093.25 596.343 -1093.25 600 c 0
 -1093.25 603.657 -1091.96 606.78 -1089.37 609.368 c 0
 -1086.78 611.956 -1083.66 613.25 -1080 613.25 c 2
 739.75 613.25 l 2
-1080 186.75 m 2
-1093.25 200 m 0
-1080 186.75 m 2
-1093.25 200 m 0
-1080 186.75 m 2
-1093.25 200 m 0
-1080 186.75 m 2
-1093.25 200 m 0
739.75 213.25 m 2
 743.49 213.25 746.609 211.956 749.12 209.367 c 0
 751.71 206.779 753 203.656 753 200 c 0
 753 196.344 751.71 193.221 749.12 190.633 c 0
 746.529 188.044 743.41 186.75 739.75 186.75 c 2
 -1080 186.75 l 2
 -1083.66 186.75 -1086.78 188.044 -1089.37 190.632 c 0
 -1091.96 193.22 -1093.25 196.343 -1093.25 200 c 0
 -1093.25 203.657 -1091.96 206.78 -1089.37 209.368 c 0
 -1086.78 211.956 -1083.66 213.25 -1080 213.25 c 2
 739.75 213.25 l 2
-1080 -13.25 m 2x43fe
-1093.25 0 m 0
-1080 -13.25 m 2
-1093.25 0 m 0
-1080 -13.25 m 2
-1093.25 0 m 0
-1080 -13.25 m 2
-1093.25 0 m 0
739.75 13.25 m 2
 743.49 13.25 746.609 11.9561 749.12 9.36719 c 0
 751.71 6.7793 753 3.65625 753 0 c 0
 753 -3.65625 751.71 -6.7793 749.12 -9.36719 c 0
 746.529 -11.9561 743.41 -13.25 739.75 -13.25 c 2
 -1080 -13.25 l 2
 -1083.66 -13.25 -1086.78 -11.9561 -1089.37 -9.36816 c 0
 -1091.96 -6.78027 -1093.25 -3.65723 -1093.25 0 c 0
 -1093.25 3.65723 -1091.96 6.78027 -1089.37 9.36816 c 0
 -1086.78 11.9561 -1083.66 13.25 -1080 13.25 c 2
 739.75 13.25 l 2
EndSplineSet
EndChar
